<?xml version="1.0" encoding="utf-8"?>
<!-- Generator: Adobe Illustrator 21.0.0, SVG Export Plug-In . SVG Version: 6.00 Build 0)  -->
<svg version="1.1" id="图层_1" xmlns="http://www.w3.org/2000/svg" xmlns:xlink="http://www.w3.org/1999/xlink" x="0px" y="0px"
	 viewBox="0 0 30 30" style="enable-background:new 0 0 30 30;" xml:space="preserve">
<style type="text/css">
	.st0{fill:#A5AFBE;}
	.st1{opacity:0.7984;enable-background:new    ;}
	.st2{fill:#FFFFFF;}
	.st3{fill:#757A85;}
	.st4{enable-background:new    ;}
</style>
<g id="Page-1">
	<g id="Group-12" transform="translate(1.000000, 1.000000)">
		<g id="Group-11">
			<g id="Oval-3-Copy-3">
				<circle class="st0" cx="14" cy="14" r="14"/>
			</g>
			<g id="Combined-Shape" class="st1">
				<path class="st2" d="M15.4,0.1C14.9,0,14.5,0,14,0C6.3,0,0,6.3,0,14s6.3,14,14,14c0.5,0,0.9,0,1.4-0.1C8.3,27.2,2.8,21.3,2.8,14
					S8.3,0.8,15.4,0.1z"/>
			</g>
			<g id="Oval-3-Copy">
				<path class="st3" d="M14,28.4C6.1,28.4-0.4,21.9-0.4,14S6.1-0.4,14-0.4S28.4,6.1,28.4,14S21.9,28.4,14,28.4z M14,0.4
					C6.5,0.4,0.4,6.5,0.4,14S6.5,27.6,14,27.6S27.6,21.5,27.6,14S21.5,0.4,14,0.4z"/>
			</g>
		</g>
		<g class="st4">
			<path class="st2" d="M14.9,18.5H7.9l0.5-2.7c1.8-2.4,4.2-5.3,7.4-8.9h4.3l-2,9.2H20l-0.5,2.5h-1.8L17.1,21h-2.8L14.9,18.5z
				 M11.1,16.2h4.3l1.5-7h-0.2c-1.7,1.9-3.4,3.9-5.7,6.8L11.1,16.2z"/>
		</g>
	</g>
</g>
</svg>
