<svg height="48" viewBox="0 0 48 48" width="48" xmlns="http://www.w3.org/2000/svg"><g fill="none" fill-rule="evenodd"><rect height="16" rx="2" stroke="#fff" stroke-width="2" width="16" x="5" y="3"/><rect fill="#fff" height="6" rx="1" width="6" x="10" y="8"/><rect height="16" rx="2" stroke="#fff" stroke-width="2" width="16" x="27" y="3"/><rect fill="#fff" height="6" rx="1" width="6" x="32" y="8"/><rect height="16" rx="2" stroke="#fff" stroke-width="2" width="16" x="5" y="25"/><g fill="#fff"><rect height="6" rx="1" width="6" x="10" y="30"/><rect height="4" rx="1" width="2" x="27" y="25"/><rect height="4" rx="1" width="2" x="41" y="25"/><rect height="7" rx="1" width="2" x="34" y="25"/><rect height="10" rx="1" width="2" x="27" y="31"/><rect height="10" rx="1" width="2" x="41" y="31"/><rect height="7" rx="1" width="2" x="34" y="34"/></g></g></svg>