<svg height="48" viewBox="0 0 128 48" width="128" xmlns="http://www.w3.org/2000/svg"><g fill="none" fill-rule="evenodd"><rect fill="#000" height="48" rx="4" width="128"/><path d="m9 8c.55228475 0 1 .44771525 1 1v30c0 .5522847-.44771525 1-1 1s-1-.4477153-1-1v-30c0-.55228475.44771525-1 1-1z" fill="#e60000"/><g fill="#fff" fill-rule="nonzero"><path d="m101.608546 27.8778962c-.171799.2161942-.135809.5307243.080385.7025227.216195.1717985.530725.1358087.702523-.0803854l3.651001-4.5944825c.144728-.182128.144728-.4400092 0-.6221372l-3.651001-4.5944824c-.171798-.2161942-.486328-.252184-.702523-.0803855-.216194.1717985-.252184.4863286-.080385.7025227l3.40381 4.2834138z"/><path d="m107.608546 27.8778962c-.171799.2161942-.135809.5307243.080385.7025227.216195.1717985.530725.1358087.702523-.0803854l3.651001-4.5944825c.144728-.182128.144728-.4400092 0-.6221372l-3.651001-4.5944824c-.171798-.2161942-.486328-.252184-.702523-.0803855-.216194.1717985-.252184.4863286-.080385.7025227l3.40381 4.2834138z" opacity=".5"/></g></g></svg>