<?xml version="1.0" encoding="utf-8"?>
<!-- Generator: Adobe Illustrator 21.0.0, SVG Export Plug-In . SVG Version: 6.00 Build 0)  -->
<svg version="1.1" id="图层_1" xmlns="http://www.w3.org/2000/svg" xmlns:xlink="http://www.w3.org/1999/xlink" x="0px" y="0px"
	 viewBox="0 0 15 14.1" style="enable-background:new 0 0 15 14.1;" xml:space="preserve">
<style type="text/css">
	.st0{fill:#2C2C3C;}
</style>
<title>Page 1</title>
<desc>Created with Sketch.</desc>
<g id="Page-1_1_">
	<g id="开发者服务1" transform="translate(-481.000000, -341.000000)">
		<g id="Page-1" transform="translate(481.000000, 340.000000)">
			<g id="Group-3" transform="translate(0.000000, 0.125000)">
				<path id="Fill-1" class="st0" d="M13.9,9.2c0,0.2-0.1,0.2-0.2,0.2c-1.3,0-2.3,1-2.3,2.3c0,0.4,0.2,0.8,0.2,0.9
					c0.1,0.1,0,0.3-0.1,0.4l-1.8,1c-0.1,0.1-0.3,0-0.4-0.1c0,0-0.9-1-1.8-1c-0.9,0-1.8,1-1.8,1C5.5,14,5.3,14,5.2,14L3.5,13
					c-0.1-0.1-0.2-0.2-0.1-0.3c0,0,0.2-0.5,0.2-0.9c0-1.3-1-2.3-2.4-2.3h0c0,0-0.1-0.1-0.1-0.2C1.1,9.1,1,8.5,1,7.9
					c0-0.5,0.1-1.2,0.1-1.3c0-0.2,0.1-0.2,0.2-0.2c1.3,0,2.3-1,2.3-2.3c0-0.4-0.2-0.8-0.2-0.9c-0.1-0.1,0-0.3,0.1-0.4l1.8-1
					c0.1-0.1,0.3,0,0.4,0.1c0,0,0.9,1,1.8,1C8.4,2.9,9.3,2,9.3,2c0.1-0.1,0.4-0.1,0.4-0.1l1.7,0.9c0.1,0.1,0.2,0.2,0.1,0.4
					c0,0.1-0.2,0.5-0.2,0.9c0,1.3,1,2.3,2.4,2.3h0c0,0,0.1,0.1,0.1,0.2v0c0,0.1,0.1,0.8,0.1,1.3S13.9,9.1,13.9,9.2 M14.8,6.5
					L14.8,6.5L14.8,6.5c-0.1-0.6-0.6-1.1-1.1-1.1c-0.7,0-1.3-0.6-1.3-1.3c0-0.2,0.1-0.4,0.1-0.5C12.7,3.1,12.5,2.4,12,2l-1.8-1
					C9.7,0.8,9,0.9,8.6,1.3C8.4,1.6,7.8,1.9,7.5,1.9c-0.3,0-0.8-0.4-1.1-0.6C6.2,1,5.8,0.9,5.4,0.9c-0.2,0-0.4,0-0.6,0.1L3,2
					c-0.5,0.4-0.7,1-0.5,1.6c0,0.1,0.1,0.3,0.1,0.5c0,0.7-0.6,1.3-1.4,1.3c-0.5,0-1,0.4-1.1,1.1C0.1,6.6,0,7.4,0,7.9
					c0,0.6,0.1,1.3,0.2,1.5c0.1,0.6,0.6,1.1,1.2,1.1c0.7,0,1.3,0.6,1.3,1.3c0,0.2-0.1,0.4-0.1,0.5c-0.3,0.6-0.1,1.3,0.5,1.6l1.8,1
					C5.3,15.1,6,15,6.4,14.5c0.3-0.3,0.8-0.7,1.1-0.7c0.3,0,0.8,0.4,1.1,0.7c0.3,0.3,0.6,0.4,1,0.4c0.2,0,0.4,0,0.6-0.1l1.8-1
					c0.5-0.4,0.7-1,0.5-1.6c0-0.1-0.1-0.3-0.1-0.5c0-0.7,0.6-1.3,1.4-1.3c0.6,0,1-0.4,1.1-1.1c0-0.1,0.2-0.9,0.2-1.5
					C15,7.4,14.9,6.6,14.8,6.5"/>
			</g>
			<path id="Fill-4" class="st0" d="M7.5,10c-1.1,0-1.9-0.9-1.9-1.9c0-1.1,0.9-1.9,1.9-1.9c1.1,0,1.9,0.9,1.9,1.9
				C9.4,9.1,8.6,10,7.5,10 M7.5,5.2c-1.6,0-2.9,1.3-2.9,2.9c0,1.6,1.3,2.9,2.9,2.9s2.9-1.3,2.9-2.9C10.4,6.5,9.1,5.2,7.5,5.2"/>
		</g>
	</g>
</g>
</svg>
