<?xml version="1.0" standalone="no"?><!DOCTYPE svg PUBLIC "-//W3C//DTD SVG 1.1//EN" "http://www.w3.org/Graphics/SVG/1.1/DTD/svg11.dtd"><svg t="1531808814350" class="icon" style="" viewBox="0 0 1024 1024" version="1.1" xmlns="http://www.w3.org/2000/svg" p-id="2302" xmlns:xlink="http://www.w3.org/1999/xlink" width="200" height="200"><defs><style type="text/css"></style></defs><path d="M787.692308 708.923077a39.384615 39.384615 0 0 1-39.384616-39.384615v-551.384616A39.384615 39.384615 0 0 0 708.923077 78.769231H315.076923a39.384615 39.384615 0 0 0-39.384615 39.384615v551.384616a39.384615 39.384615 0 0 1-78.769231 0v-551.384616C196.923077 53.011692 249.934769 0 315.076923 0h393.846154c65.142154 0 118.153846 53.011692 118.153846 118.153846v551.384616a39.384615 39.384615 0 0 1-39.384615 39.384615z" fill="#EE7684" p-id="2303"></path><path d="M512 1024a39.227077 39.227077 0 0 1-21.819077-6.616615l-472.615385-315.076923A39.384615 39.384615 0 0 1 39.384615 630.153846H315.076923a39.384615 39.384615 0 0 1 0 78.769231H169.432615L512 937.275077 854.567385 708.923077H708.923077a39.384615 39.384615 0 0 1 0-78.769231h275.692308a39.463385 39.463385 0 0 1 21.897846 72.152616l-472.615385 315.076923A39.620923 39.620923 0 0 1 512 1024zM456.231385 157.538462a39.227077 39.227077 0 0 0-27.805539 67.190153l55.689846 55.689847a39.227077 39.227077 0 0 0 55.768616 0 39.384615 39.384615 0 0 0 0-55.689847l-55.768616-55.689846A39.542154 39.542154 0 0 0 456.231385 157.538462z" fill="#EE7684" p-id="2304"></path><path d="M567.768615 157.538462a39.542154 39.542154 0 0 0-27.884307 11.500307l-55.689846 55.768616a39.384615 39.384615 0 0 0 55.768615 55.689846l55.689846-55.689846A39.384615 39.384615 0 0 0 567.768615 157.538462z" fill="#EE7684" p-id="2305"></path><path d="M590.769231 291.997538h-157.538462a39.384615 39.384615 0 0 0 0 78.769231h157.538462a39.384615 39.384615 0 0 0 0-78.769231zM590.769231 449.536h-157.538462a39.384615 39.384615 0 0 0 0 78.769231h157.538462a39.384615 39.384615 0 0 0 0-78.769231z" fill="#EE7684" p-id="2306"></path><path d="M512 291.997538a39.384615 39.384615 0 0 0-39.384615 39.384616v236.307692a39.384615 39.384615 0 0 0 78.76923 0v-236.307692a39.384615 39.384615 0 0 0-39.384615-39.384616z" fill="#EE7684" p-id="2307"></path></svg>