<?xml version="1.0" encoding="utf-8"?>
<!-- Generator: Adobe Illustrator 21.0.0, SVG Export Plug-In . SVG Version: 6.00 Build 0)  -->
<svg version="1.1" id="图层_1" xmlns="http://www.w3.org/2000/svg" xmlns:xlink="http://www.w3.org/1999/xlink" x="0px" y="0px"
	 viewBox="0 0 15 16" style="enable-background:new 0 0 15 16;" xml:space="preserve">
<style type="text/css">
	.st0{fill:#fff;}
</style>
<title>Combined Shape</title>
<desc>Created with Sketch.</desc>
<g id="Page-1">
	<path id="Combined-Shape" class="st0" d="M3.9,1.1C3.9,1.1,3.9,1.1,3.9,1.1C3,1.3,2.6,1.5,2.6,1.5C1.9,1.7,1.4,2.2,1.3,2.8
		C0.8,4.9,1.4,7.5,2.9,9.9c1.5,2.4,3.6,4.2,5.7,4.9c0.6,0.2,1.4,0.1,1.9-0.4c0,0,0.2-0.2,0.7-0.6c0.4-0.3,0.5-0.4,0.2-1.3
		c-0.2-0.5-0.7-1.1-1.2-1.6c-0.2-0.2-1-0.9-1.7-0.9c-0.1,0-0.3,0.1-0.4,0.2c-0.2,0.1-0.4,0.3-0.6,0.3C6.6,10.6,5.5,9.6,5,8.8
		c-0.5-0.8-0.8-2-0.4-2.5C4.8,6,5,5.8,5.2,5.7c0.1-0.1,0.2-0.1,0.3-0.2c0.3-0.3,0.3-0.9,0.2-1.8C5.4,2.6,4.6,1.1,3.9,1.1 M9.2,15.8
		c-0.3,0-0.6,0-0.9-0.1C6,14.9,3.7,13,2.1,10.4C0.5,7.8-0.1,5,0.4,2.6c0.2-0.9,0.9-1.7,1.9-2c0,0,0.5-0.1,1.3-0.3
		c1.6-0.4,2.6,2,2.9,3.2c0.3,1.1,0.1,2-0.4,2.6C6,6.3,5.8,6.4,5.7,6.5C5.5,6.5,5.4,6.6,5.4,6.7c-0.1,0.1,0,0.8,0.5,1.6
		C6.2,9,7,9.6,7.2,9.6c0,0,0.1-0.1,0.2-0.1c0.2-0.2,0.5-0.4,1-0.4c1,0,1.9,0.8,2.3,1.1c0.7,0.6,1.2,1.3,1.5,2
		c0.5,1.2,0.2,1.7-0.4,2.3c-0.5,0.5-0.7,0.6-0.7,0.6C10.6,15.5,9.9,15.8,9.2,15.8z M14,10c0,0-0.1,0-0.1,0c-0.2-0.1-0.4-0.3-0.3-0.6
		c0.5-1.6,0.4-3.2-0.4-4.7C12.4,3.3,11,2.2,9.4,1.7C9.1,1.6,9,1.3,9.1,1.1c0.1-0.2,0.3-0.4,0.6-0.3c1.9,0.6,3.4,1.8,4.3,3.5
		C14.9,6,15,7.9,14.4,9.7C14.3,9.9,14.2,10,14,10z M11.8,9.4c0,0-0.1,0-0.1,0c-0.2-0.1-0.4-0.3-0.3-0.6c0.4-1,0.3-2.1-0.3-3.1
		c-0.5-1-1.4-1.7-2.5-2C8.4,3.6,8.3,3.4,8.4,3.1c0.1-0.2,0.3-0.4,0.6-0.3c1.3,0.4,2.4,1.3,3,2.4c0.6,1.2,0.7,2.5,0.3,3.8
		C12.2,9.2,12,9.4,11.8,9.4z M9.7,8.7c0,0-0.1,0-0.1,0C9.3,8.6,9.2,8.3,9.2,8.1c0.2-0.5,0.1-1-0.1-1.4C8.9,6.2,8.5,5.9,8,5.7
		C7.7,5.7,7.6,5.4,7.7,5.2C7.7,4.9,8,4.8,8.2,4.9C9,5.1,9.6,5.6,9.9,6.3c0.3,0.6,0.4,1.4,0.1,2.1C10,8.6,9.9,8.7,9.7,8.7z"/>
</g>
</svg>
