<svg height="34" viewBox="0 0 54 34" width="54" xmlns="http://www.w3.org/2000/svg"><path d="m250.237204 89c-.547362 0-1.094725-.1400038-1.583522-.4154953-.301837-.1671013-.578897-.3861396-.82217-.6593729-.567635-.6300172-.842442-1.4203615-.831512-2.2107057.00709-.873895.369746-1.7432736 1.068027-2.3710328l18.554009-16.7688468c1.042917-.9416387 2.574631-1.1042238 3.788739-.3996884l8.377123 4.8481975 16.808306-15.1881583c1.326734-1.2013233 3.374275-1.0929332 4.570364.2393614.558625.6187266.833432 1.3977802.833432 2.1723176 0 .8851855-.360403 1.7703711-1.067695 2.4094209l-18.558514 16.7688468c-1.040664.9438968-2.567873 1.0997075-3.784234.4019465l-8.379375-4.8527137-16.806053 15.1904164c-.619444.5600154-1.39431.8355068-2.166925.8355068" fill="#e50000" fill-rule="evenodd" transform="translate(-247 -55)"/></svg>