<?xml version="1.0" encoding="UTF-8"?>
<svg width="54px" height="34px" viewBox="0 0 54 34" version="1.1" xmlns="http://www.w3.org/2000/svg" xmlns:xlink="http://www.w3.org/1999/xlink">
    <!-- Generator: Sketch 57.1 (83088) - https://sketch.com -->
    <title>Fill 3@2x</title>
    <desc>Created with Sketch.</desc>
    <g id="页面-1" stroke="none" stroke-width="1" fill="none" fill-rule="evenodd">
        <g id="首页" transform="translate(-910.000000, -2376.000000)" fill="#FFFFFF">
            <path d="M913.237204,2410 C912.689842,2410 912.142479,2409.86 911.653682,2409.5845 C911.351845,2409.4174 911.074785,2409.19837 910.831512,2408.92513 C910.263877,2408.29511 909.98907,2407.50477 910,2406.71443 C910.00709,2405.84053 910.369746,2404.97115 911.068027,2404.34339 L929.622036,2387.57455 C930.664953,2386.63291 932.196667,2386.47032 933.410775,2387.17486 L941.787898,2392.02306 L958.596204,2376.8349 C959.922938,2375.63357 961.970479,2375.74196 963.166568,2377.07426 C963.725193,2377.69299 964,2378.47204 964,2379.24658 C964,2380.13176 963.639597,2381.01695 962.932305,2381.656 L944.373791,2398.42484 C943.333127,2399.36874 941.805918,2399.52455 940.589557,2398.82679 L932.210182,2393.97408 L915.404129,2409.16449 C914.784685,2409.72451 914.009819,2410 913.237204,2410" id="Fill-3"></path>
        </g>
    </g>
</svg>