<?xml version="1.0" encoding="UTF-8"?>
<svg width="12px" height="16px" viewBox="0 0 12 16" version="1.1" xmlns="http://www.w3.org/2000/svg" xmlns:xlink="http://www.w3.org/1999/xlink">
    <!-- Generator: Sketch 49 (51002) - http://www.bohemiancoding.com/sketch -->
    <title>icon_客户端02</title>
    <desc>Created with Sketch.</desc>
    <defs></defs>
    <g id="PC优化-视觉" stroke="none" stroke-width="1" fill="none" fill-rule="evenodd">
        <g id="手机-(1)-copy" fill="#FFFFFF" fill-rule="nonzero">
            <path d="M9.44094233,16 L1.98761289,16 C0.889919774,16 0,15.1047863 0,14.0000283 L0,1.99997169 C0,0.895181364 0.88990356,0 1.98761289,0 L9.44094233,0 C10.5386354,0 11.4285714,0.895213716 11.4285714,1.99997169 L11.4285714,14.0000283 C11.4285714,15.1048186 10.5386517,16 9.44094233,16 Z M10.4345704,1.99997169 C10.4345704,1.4479324 9.98965917,0.99996967 9.44092611,0.99996967 L1.98759667,0.99996967 C1.43887983,0.99996967 0.993806444,1.4479324 0.993806444,1.99997169 L0.993806444,2.50000506 L10.4345704,2.50000506 L10.4345542,1.99997169 L10.4345704,1.99997169 Z M10.4345704,3.50002325 L0.993822659,3.50002325 L0.993822659,11.4844619 L10.4345704,11.4844619 L10.4345704,3.50002325 Z M10.4345866,12.4844639 L0.993822659,12.4844639 L0.993822659,14.0000445 C0.993822659,14.5524396 1.43891226,15.0000465 1.98761289,15.0000465 L9.44094233,15.0000465 C9.98967538,15.0000465 10.4345866,14.5524558 10.4345866,14.0000445 L10.4345866,12.4844639 Z M5.71435057,14.5000455 C5.30285753,14.5000455 4.96916194,14.164312 4.96916194,13.7500116 C4.96916194,13.3357112 5.30284132,12.9999778 5.71435057,12.9999778 C6.12577875,12.9999778 6.45939328,13.3357112 6.45939328,13.7500116 C6.45939328,14.164312 6.12574633,14.5000455 5.71435057,14.5000455 Z" id="Shape"></path>
        </g>
    </g>
</svg>