<?xml version="1.0" encoding="UTF-8"?>
<svg width="51px" height="58px" viewBox="0 0 51 58" version="1.1" xmlns="http://www.w3.org/2000/svg" xmlns:xlink="http://www.w3.org/1999/xlink">
    <!-- Generator: Sketch 57.1 (83088) - https://sketch.com -->
    <title>编组@2x</title>
    <desc>Created with Sketch.</desc>
    <g id="页面-1" stroke="none" stroke-width="1" fill="none" fill-rule="evenodd">
        <g id="画板" transform="translate(-877.000000, -4150.000000)">
            <g id="编组-20备份" transform="translate(847.000000, 4100.000000)">
                <g id="编组" transform="translate(30.000000, 50.000000)">
                    <path d="M1.20792265e-13,41.457632 L1.20792265e-13,15.8492109 C1.20792265e-13,14.7671056 0.57504761,13.7692109 1.51399498,13.2281583 L23.722416,0.405000385 C24.6592581,-0.133946984 25.8129423,-0.136052247 26.7476792,0.405000385 L38.6213634,7.25973723 C40.0676792,8.0955267 40.5645213,9.94605302 39.7287318,11.3944741 C38.8929423,12.8407899 37.042416,13.337632 35.593995,12.5018425 L25.233995,6.52078986 L6.05294235,17.5965793 L6.05294235,39.7481583 L25.233995,50.8218425 L44.4192581,39.7481583 L44.4192581,15.8492109 L50.4718897,15.8492109 L50.4718897,41.4955267 C50.4718897,42.5755267 49.8929423,43.5755267 48.9582055,44.1165793 L26.7476792,56.9397372 C26.2803108,57.2050004 25.7582055,57.3439478 25.233995,57.3439478 C24.7118897,57.3439478 24.1897845,57.2050004 23.722416,56.9397372 L1.54557393,44.1334214 C1.26557393,43.977632 1.00662656,43.7734214 0.777152874,43.5186846 C0.246626558,42.9313162 -0.0102155475,42.1944741 1.20792265e-13,41.457632" id="Fill-1备份" fill="#000000"></path>
                    <path d="M3.02662656,44.5207899 C2.51504761,44.5207899 2.00346866,44.3902635 1.54662656,44.1334214 C1.26452129,43.977632 1.00557393,43.7734214 0.778205505,43.5186846 C0.247679189,42.9313162 -0.00916291596,42.1944741 0.00105263158,41.457632 C0.0076791893,40.6428951 0.346626558,39.8323688 0.999258137,39.2471056 L18.3403108,23.6134214 C19.3150476,22.7355267 20.7466266,22.5839478 21.8813634,23.2407899 L29.7108371,27.7607899 L45.4203108,13.6007899 C46.6603108,12.4807899 48.573995,12.5818425 49.6918897,13.8239478 C50.213995,14.4007899 50.4708371,15.1271056 50.4708371,15.8492109 C50.4708371,16.6744741 50.133995,17.4997372 49.4729423,18.0955267 L32.1276792,33.7292109 C31.1550476,34.6092109 29.7276792,34.7544741 28.5908371,34.1039478 L20.7592581,29.5797372 L5.05188972,43.7418425 C4.47294235,44.2639478 3.74873182,44.5207899 3.02662656,44.5207899" id="Fill-3备份" fill="#E50000"></path>
                </g>
            </g>
        </g>
    </g>
</svg>