<?xml version="1.0" encoding="utf-8"?>
<!-- Generator: Adobe Illustrator 21.0.0, SVG Export Plug-In . SVG Version: 6.00 Build 0)  -->
<svg version="1.1" id="图层_1" xmlns="http://www.w3.org/2000/svg" xmlns:xlink="http://www.w3.org/1999/xlink" x="0px" y="0px"
	 viewBox="0 0 49 46" style="enable-background:new 0 0 49 46;" xml:space="preserve">
<style type="text/css">
	.st0{fill:#A5AFBE;}
	.st1{filter:url(#Adobe_OpacityMaskFilter);}
	.st2{fill:#FFFFFF;}
	.st3{mask:url(#mask-2);fill:#A5AFBE;}
</style>
<title>Page 1</title>
<desc>Created with Sketch.</desc>
<g id="Page-1_1_">
	<g id="开发者服务4" transform="translate(-1101.000000, -611.000000)">
		<g id="Page-1" transform="translate(1101.000000, 610.000000)">
			<path id="Fill-1" class="st0" d="M43,28c1.1,0,2,0.9,2,2c0,1.1-0.9,2-2,2s-2-0.9-2-2C41,28.9,41.9,28,43,28 M43,33
				c1.7,0,3-1.3,3-3c0-1.7-1.3-3-3-3s-3,1.3-3,3C40,31.7,41.3,33,43,33"/>
			<path id="Fill-3" class="st0" d="M33.2,46H1V2h38.2v18.3c0,0.3,0.2,0.5,0.5,0.5c0.3,0,0.5-0.2,0.5-0.5V1.5C40.2,1.2,40,1,39.7,1
				H0.5C0.2,1,0,1.2,0,1.5v45C0,46.8,0.2,47,0.5,47h32.7c0.3,0,0.5-0.2,0.5-0.5S33.5,46,33.2,46"/>
			<path id="Fill-5" class="st0" d="M33.2,7.9H7c-0.3,0-0.5,0.2-0.5,0.5S6.7,8.9,7,8.9h26.3c0.3,0,0.5-0.2,0.5-0.5
				S33.5,7.9,33.2,7.9"/>
			<path id="Fill-7" class="st0" d="M33.7,19.2c0-0.3-0.2-0.5-0.5-0.5H7c-0.3,0-0.5,0.2-0.5,0.5c0,0.3,0.2,0.5,0.5,0.5h26.3
				C33.5,19.7,33.7,19.5,33.7,19.2"/>
			<path id="Fill-9" class="st0" d="M7,29.4c-0.3,0-0.5,0.2-0.5,0.5c0,0.3,0.2,0.5,0.5,0.5h14.4c0.3,0,0.5-0.2,0.5-0.5
				c0-0.3-0.2-0.5-0.5-0.5H7z"/>
			<g id="Group-13" transform="translate(24.000000, 23.978500)">
				<g id="Clip-12">
				</g>
				<defs>
					<filter id="Adobe_OpacityMaskFilter" filterUnits="userSpaceOnUse" x="0.8" y="0.4" width="23.5" height="18.8">
						<feColorMatrix  type="matrix" values="1 0 0 0 0  0 1 0 0 0  0 0 1 0 0  0 0 0 1 0"/>
					</filter>
				</defs>
				<mask maskUnits="userSpaceOnUse" x="0.8" y="0.4" width="23.5" height="18.8" id="mask-2">
					<g class="st1">
						<polygon id="path-1" class="st2" points="24.4,0.4 24.4,19.2 0.8,19.2 0.8,0.4 						"/>
					</g>
				</mask>
				<path id="Fill-11" class="st3" d="M20.9,18.2H4.2c-1.3,0-2.3-1-2.4-2.3l7.6-8.7l5.9,8.4c0.1,0.1,0.2,0.2,0.4,0.2h0
					c0.2,0,0.3-0.1,0.4-0.2l2.9-4.1l4.4,4.4C23.3,17.2,22.2,18.2,20.9,18.2 M4.2,1.4h16.7c1.3,0,2.4,1.1,2.4,2.4v10.7l-4.1-4.1
					c-0.1-0.1-0.3-0.2-0.4-0.1c-0.1,0-0.3,0.1-0.4,0.2l-2.8,4L9.8,6.2C9.8,6,9.6,6,9.5,6C9.3,5.9,9.2,6,9.1,6.1l-7.2,8.3V3.8
					C1.8,2.5,2.9,1.4,4.2,1.4 M20.9,0.4H4.2C2.3,0.4,0.8,2,0.8,3.8v12c0,1.9,1.5,3.4,3.4,3.4h16.7c1.9,0,3.4-1.5,3.4-3.4v-12
					C24.4,2,22.8,0.4,20.9,0.4"/>
			</g>
		</g>
	</g>
</g>
</svg>
