<?xml version="1.0" standalone="no"?><!DOCTYPE svg PUBLIC "-//W3C//DTD SVG 1.1//EN" "http://www.w3.org/Graphics/SVG/1.1/DTD/svg11.dtd"><svg t="1537178169411" class="icon" style="" viewBox="0 0 1024 1024" version="1.1" xmlns="http://www.w3.org/2000/svg" p-id="7927" xmlns:xlink="http://www.w3.org/1999/xlink" width="16" height="16"><defs><style type="text/css"></style></defs><path d="M797.762368 396.500988a42.803859 42.803859 0 0 0-60.337969 0L554.744354 579.181033V42.16914a42.684849 42.684849 0 0 0-85.369698 0v537.130903L286.575601 396.500988a42.684849 42.684849 0 0 0-60.337969 60.337969l253.887576 253.887576a38.797195 38.797195 0 0 0 1.745477 1.864487 42.684849 42.684849 0 0 0 34.314493 12.25801h0.396699l2.023167-0.27769a42.565839 42.565839 0 0 0 23.80196-11.90098l1.547128-1.626467 253.887576-253.887576a42.764189 42.764189 0 0 0-0.07934-60.655329z m98.381436 627.141983H128.014876a128.173556 128.173556 0 0 1-128.014876-128.014877v-256.069422a42.684849 42.684849 0 0 1 85.330028 0v256.069422a42.684849 42.684849 0 0 0 42.684848 42.684849h768.128928a42.684849 42.684849 0 0 0 42.684848-42.684849v-256.069422a42.684849 42.684849 0 0 1 85.330028 0v256.069422a128.173556 128.173556 0 0 1-128.014876 128.014877" fill="#ec5466" p-id="7928"></path></svg>