<svg id="图层_1" data-name="图层 1" xmlns="http://www.w3.org/2000/svg" viewBox="0 0 635 633"><defs><style>.cls-1{fill:#d80c24;}.cls-1,.cls-2{fill-rule:evenodd;}</style></defs><title>SF</title><path class="cls-1" d="M445.93,355.27a32.66,32.66,0,0,1-33-33c0-18.32,14.5-32.65,33-32.65a32.33,32.33,0,0,1,32.66,32.65A32.89,32.89,0,0,1,445.93,355.27Z"/><path class="cls-2" d="M317.16,72.59a329.69,329.69,0,0,1,166.71,45l57.63-45a400.12,400.12,0,0,0-448.57,0l57.59,45A329.74,329.74,0,0,1,317.16,72.59Z"/><path class="cls-2" d="M150.52,515,92.93,560a400,400,0,0,0,448.51,0L483.87,515a331.66,331.66,0,0,1-333.35,0Z"/><path class="cls-2" d="M73.5,316.33a329.87,329.87,0,0,1,44.92-166.68L73.53,92a400.22,400.22,0,0,0,0,448.54L118.48,483A329.26,329.26,0,0,1,73.5,316.33Z"/><path class="cls-2" d="M515.87,483l45,57.55a400.15,400.15,0,0,0,0-448.54l-45,57.62a331,331,0,0,1,0,333.37Z"/><path class="cls-2" d="M216.51,466.23c-32.29,0-60-8.75-84.6-26.71l-.84-.68V377.73l3.74,4.38c7.12,8.36,33.67,35.54,77.13,35.54,33.48,0,37.07-24.67,37.07-35.27,0-21.43-22.22-33.8-47.07-45.65l-1.91-1c-32.32-15.29-69-32.7-69-80.13,0-42.37,35.68-74.5,84.88-76.41,2.28-.11,4.5-.11,6.64-.11,42.43,0,63.9,16,67.78,19.23l.78.63,0,1.12v51L287.66,248c-15.11-13.27-39.76-21.82-62.64-21.82-10.43,0-19.59,1.81-26.52,5.14-9.85,4.73-14.66,12.69-14.66,24.27,0,14.55,17.07,23.32,38.74,34.36l3.59,1.91c28.35,14.55,75.79,39,75.79,92.84,0,22.83-9.61,46.24-24.48,59.68C261.77,458.53,240.18,466.23,216.51,466.23Z"/><path class="cls-2" d="M385.22,467.94H331.88V197l1.33-.53c1.86-.75,46-17.9,93-17.9,50.64,0,76.14,18.8,76.4,19l.84.65V250.7L499.9,248c-4.08-3.12-26.57-18.69-67.7-19.48-.95,0-2-.11-2.85-.11-21.19,0-36.17,4.56-43.23,7.28l-.9.37v231.9Z"/></svg>