<?xml version="1.0" encoding="UTF-8"?>
<svg width="58px" height="58px" viewBox="0 0 58 58" version="1.1" xmlns="http://www.w3.org/2000/svg" xmlns:xlink="http://www.w3.org/1999/xlink">
    <!-- Generator: Sketch 54.1 (76490) - https://sketchapp.com -->
    <title>切片复制</title>
    <desc>Created with Sketch.</desc>
    <g id="打印发货" stroke="none" stroke-width="1" fill="none" fill-rule="evenodd">
        <g id="Page-1复制-2">
            <path d="M40.9451709,32.6146935 C39.2275364,32.6146935 37.881686,31.2675914 37.881686,29.5524604 C37.881686,27.8518504 39.2275364,26.5219396 40.9451709,26.5219396 C42.6408573,26.5219396 43.9768601,27.8518504 43.9768601,29.5524604 C43.9768601,31.2384662 42.6164889,32.6146935 40.9451709,32.6146935" id="Fill-1" fill="#D80C24"></path>
            <path d="M28.9933488,6.37778014 C34.6396279,6.37778014 39.9223847,7.90597583 44.4662466,10.5572017 L49.8151819,6.38287079 C43.8740624,2.35149525 36.7096855,3.3381295e-05 28.9933488,3.3381295e-05 C21.2794322,3.3381295e-05 14.1161401,2.35149525 8.18127971,6.38287079 L13.526543,10.5572017 C18.0703214,7.90597583 23.3568337,6.37778014 28.9933488,6.37778014" id="Fill-3" fill="#000000"></path>
            <path d="M13.526543,47.4428817 L8.18127971,51.6124558 C14.1161401,55.640076 21.2794322,57.9963781 28.9933488,57.9963781 C36.7096855,57.9963781 43.8740624,55.640076 49.8103416,51.6124558 L44.4662466,47.4428817 C39.9223847,50.0953594 34.6396279,51.6124558 28.9933488,51.6124558 C23.3568337,51.6124558 18.0703214,50.0953594 13.526543,47.4428817" id="Fill-5" fill="#000000"></path>
            <path d="M6.37793036,29.0006176 C6.37793036,23.3569255 7.89861525,18.0739183 10.5473376,13.5300564 L6.38026705,8.18237295 C2.35648576,14.1210722 1.66906477e-05,21.286701 1.66906477e-05,29.0006176 C1.66906477e-05,36.7157024 2.35648576,43.8803298 6.38026705,49.8140219 L10.5523447,44.4674233 C7.89861525,39.9261485 6.37793036,34.6408881 6.37793036,29.0006176" id="Fill-7" fill="#000000"></path>
            <path d="M47.4368397,44.4723888 L51.6111706,49.8140636 C55.6388742,43.8753643 57.9927563,36.7157442 57.9927563,29.0005758 C57.9927563,21.2867427 55.6388742,14.121114 51.6111706,8.18233122 L47.4368397,13.5300981 C50.0941577,18.07396 51.6161778,23.3569672 51.6161778,29.0005758 C51.6161778,34.6408463 50.0941577,39.9261068 47.4368397,44.4723888" id="Fill-9" fill="#000000"></path>
            <path d="M19.6510676,42.9136742 C16.6536777,42.9136742 14.0856547,42.1013404 11.7988691,40.4349462 L11.7205899,40.3714383 L11.7205899,40.2735476 L11.7205899,35.2353922 L11.7205899,34.6993721 L12.0680892,35.1056224 C12.7288719,35.8812368 15.1928288,38.4041117 19.226541,38.4041117 C22.3340892,38.4041117 22.6669007,36.1139045 22.6669007,35.1301577 C22.6669007,33.1407994 20.6041871,31.993234 18.2978734,30.8934037 L18.1204518,30.8040253 C15.1205583,29.3847361 11.7205899,27.7686642 11.7205899,23.3666728 C11.7205899,19.4346066 15.0325151,16.4517376 19.5984086,16.2743994 C19.8101295,16.2645519 20.0156748,16.2645519 20.2150446,16.2645519 C24.1533698,16.2645519 26.1464,17.7486009 26.506,18.0496167 L26.5782705,18.1083678 L26.5806072,18.2123505 L26.5806072,22.5089404 L26.5806072,22.9482383 L26.2553065,22.6620771 C24.8532086,21.4299735 22.5653381,20.6370843 20.4414532,20.6370843 C19.4735626,20.6370843 18.623341,20.8047419 17.9799165,21.1142699 C17.0657698,21.5535678 16.6194619,22.2923793 16.6194619,23.3666728 C16.6194619,24.7173635 18.2037381,25.5308656 20.2150446,26.5561721 L20.5479396,26.7335937 C23.1794705,28.0842843 27.5826302,30.3514584 27.5826302,35.3503908 C27.5826302,37.4693519 26.6907655,39.6421404 25.3107827,40.8901001 C23.852354,42.1992311 21.8483914,42.9136742 19.6510676,42.9136742" id="Fill-11" fill="#000000"></path>
            <path d="M35.3100412,43.0727528 L35.1094196,43.0727528 L30.5557102,43.0727528 L30.3598455,43.0727528 L30.3598455,42.8746348 L30.3598455,18.0593974 L30.3598455,17.9210319 L30.4833563,17.8721283 C30.656021,17.8024449 34.7544929,16.2107413 39.1125045,16.2107413 C43.8129246,16.2107413 46.1790742,17.9554147 46.203526,17.9749427 L46.2818052,18.0349456 L46.2818052,18.1279125 L46.2818052,22.5089571 L46.2818052,22.9091154 L45.9539174,22.6570032 C45.5747894,22.3670866 43.4876239,20.9222607 39.6703059,20.8488219 C39.5822627,20.8488219 39.4892958,20.8389744 39.4060095,20.8389744 C37.4388498,20.8389744 36.0489361,21.2623327 35.3931606,21.5144449 L35.3100412,21.5486607 L35.3100412,21.6367039 L35.3100412,42.8746348 L35.3100412,43.0727528 Z" id="Fill-13" fill="#000000"></path>
        </g>
    </g>
</svg>