<svg height="37" viewBox="0 0 180 37" width="180" xmlns="http://www.w3.org/2000/svg"><g fill="none" fill-rule="evenodd"><path d="m0 26.6513348v-16.4625564c0-.69563905.36967346-1.33714281.97328249-1.68496236l14.27684211-8.24345865c.6022556-.34646617 1.3439098-.34781955 1.944812 0l7.6330827 4.40661654c.9297745.53729323 1.249173 1.72691729.7118797 2.65804511-.5372932.92977444-1.7269173 1.24917294-2.6580451.7118797l-6.66-3.8449624-12.33067668 7.12015036v14.2403008l12.33067668 7.118797 12.3333835-7.118797v-15.3636091h3.8909774v16.4869173c0 .6942858-.3721804 1.3371429-.9730827 1.6849624l-14.2781955 8.2434587c-.3004511.1705263-.6360902.2598496-.9730827.2598496-.3356391 0-.6712782-.0893233-.9717293-.2598496l-14.25654136-8.2326316c-.18-.1001504-.34646617-.2314286-.49398496-.395188-.34105264-.3775939-.50616542-.8512782-.49959828-1.3249624" fill="#000"/><path d="m1.9456885 28.6205078c-.32887218 0-.65774436-.0839098-.95142857-.2490226-.18135338-.1001504-.34781955-.2314286-.49398496-.395188-.34105263-.3775939-.50616542-.8512782-.49959828-1.3249624.00425993-.5237594.22215467-1.044812.64170354-1.4210526l11.14781957-10.0502256c.6266165-.5643609 1.5469173-.6618045 2.276391-.2395488l5.033233 2.9057143 10.0989474-9.10285719c.7971429-.72 2.0273684-.6550376 2.746015.14345865.3356391.37082706.5007519.83774436.5007519 1.30195484 0 .5305264-.2165413 1.0610527-.6415037 1.4440602l-11.1505263 10.0502256c-.6252632.5657142-1.5428572.6590977-2.2736843.2409022l-5.0345864-2.908421-10.09759401 9.1042105c-.37218045.3356391-.83774436.5007519-1.30195489.5007519" fill="#e50000"/><g fill="#000"><path d="m93.4299441 18.0235153v5.0467669c0 .2625564.2111279.4723308.4723309.4723308h6.486767c.25985 0 .470977-.2097744.470977-.4723308v-5.0467669c0-.261203-.211127-.4723308-.470977-.4723308h-6.486767c-.261203 0-.4723309.2111278-.4723309.4723308m-1.9596992 6.7195489v-8.3909775c0-.4222556.3410526-.7633083.7619549-.7633083h9.8269172c.420902 0 .761955.3410527.761955.7633083v8.3909775c0 .4181954-.341053.7619548-.761955.7619548l-9.8269172-.0027067c-.4209023 0-.7619549-.3410527-.7619549-.7592481"/><path d="m59.4367411 6.48673333h-9.0649624c-.4249624 0-.7687218.3437594-.7687218.76736842v.42631579c0 .42090226.3451128.76736842.7687218.76736842h3.2643609.0054136c.0974436 0 .1786466.07984963.1786466.17864662 0 .00947368-.0027068.02300752-.0027068.02300752l-.2828571 2.1478195c-.0324812.232782-.2314286.4087219-.4696241.4087219h-2.3372932c-.4181955 0-.7619549.3437593-.7619549.7633082v11.1478196c0 .4195488.3396992.7592481.7592481.7592481h.4439098c.4181955 0 .7578947-.3396993.7578947-.7592481v-9.4804512c0-.2584962.2097745-.4682706.4696241-.4682706h5.0142857c.2598496 0 .4723308.2111278.4723308.4709774v9.4723308c0 .4222557.3410527.7646617.7619549.7646617h.4344361c.4222556 0 .7633083-.342406.7633083-.7646617v-11.1383458c0-.4236091-.342406-.7673684-.7660151-.7673684l-3.4172932-.0013534c-.0974436 0-.1759398-.0839098-.1759398-.1759399v-.0230075l.2842105-2.15052632c.0311278-.23278195.2300752-.40736842.4655639-.40736842h3.2034586c.4222557 0 .7687218-.34646616.7687218-.76736842v-.42631579c0-.42090225-.3464661-.76736842-.7687218-.76736842"/><path d="m39.5061396 30.3690792c-.1759398 0-.3518797-.0676692-.4709774-.197594-.1190978-.127218-.1732331-.3085714-.1583459-.4831579l.5711278-7.2798496c.0757895-.9446617.1150376-1.9001504.1150376-2.8407519v-12.31984961c0-.42090226.3410527-.76060151.7606015-.76060151h.4371429c.4209023 0 .7619549.33969925.7619549.76060151v12.31984961c0 1.0028572-.0406015 2.0111278-.1204511 2.9950376l-.5562406 7.0781955c-.0311279.4087218-.377594.7281203-.7863158.7281203z"/><path d="m58.514275 30.3690792c-.3031579 0-.5778948-.1678196-.709173-.441203-.4980451-1.0258647-1.9556391-4.3051128-2.4793985-5.4879699-.0676691-.1502256-.2842105-.1380452-.3356391.0175939l-1.7336842 5.3810527c-.1015037.3166917-.3951879.5305263-.7267669.5305263h-.6360902c-.2043609 0-.3978947-.0866165-.5169925-.2530827-.1204511-.1651128-.1475188-.377594-.0839098-.5724812l1.9732331-6.1240602c.4357895-1.3547368.6577444-2.7703759.6577444-4.1914285v-3.8030076c0-.4209022.3437594-.7619548.7633082-.7619548h.4344361c.4222557 0 .7633083.3396992.7633083.7606015v3.826015c0 1.178797-.0040601 1.5252632-.098797 2.061203l-.2842105 1.3290226c-.0230075.1123308.063609.2165413.1772932.2151879l.5548872-.010827c.3234587-.0027068.6171429.1894736.7430076.487218 1.1219548 2.6621053 2.1302255 4.8018045 2.7839097 6.1335338.0947369.1962406.0893233.4276692-.0257143.6130828-.1163909.1867669-.324812.2909774-.5454135.2909774z"/><path d="m43.6481697 28.8808987c-.4263158 0-.772782-.3451127-.772782-.7727819v-20.0625564c0-.41684211.3424061-.75789474.7578948-.75789474h.4384962c.4222557 0 .7646617.34105263.7646617.76330827v20.05714287c0 .4276692-.3464662.7727819-.772782.7727819z"/><path d="m46.9391923 30.3690792c-.4222557 0-.7633083-.342406-.7633083-.7646617v-22.35654131c0-.41954888.3410526-.76060151.7606015-.76060151h.4357895c.4222556 0 .7633082.33969925.7633082.76195489v22.35518793c0 .4222557-.342406.7646617-.7646616.7646617z"/><path d="m127.984937 11.1151694c.094736.5765414.357293 2.1681203.362706 2.1992481.129925.7876692.320752 1.8257143.573835 3.2210527.035188.1894737.301804.2003007.353233.0162406.105564-.3897745.304511-1.1246617.441203-1.6403008.09203-.3369925.396541-.5724812.747068-.5724812l.642857.0013534c.400601 0 .690225.3803008.586015.7673684-.361353 1.3357895-1.130075 4.111579-1.713384 5.8696241-.085263.2557895-.102857.5305263-.048721.7944361.590075 2.9733834 1.182857 5.6043609 1.759398 7.8171428.048722.1921805.009474.3884211-.109624.5427068-.120451.1556391-.301804.2422556-.500752.2422556l-.614436.0013589c-.36.0013479-.672631-.2463213-.751128-.5968476-.262556-1.1598496-.826917-3.6676692-1.00421-4.5027068-.035188-.1705263-.26797-.1962406-.338346-.0351879-.388421.8878195-1.690376 3.610827-2.206015 4.6881203-.129925.2747368-.406015.446622-.706466.446622l-.717294-.0013589c-.228721 0-.458797-.1150376-.563007-.3058646-.133985-.2490226-.09609-.4493233.024361-.6523309 1.197744-2.0178947 2.371128-4.6542857 3.487669-7.8387969.07579-.215188.093383-.4493234.048722-.673985-.604963-3.1384962-1.192331-6.4475188-1.748572-9.836391-.013533-.0893233-.090676-.1529323-.18-.1529323h-5.747819c-.262557 0-.473684.2111278-.473684.4723308v2.3711278c0 .2395489.193533.4330827.434436.4330827h3.761052c.422256 0 .763309.3424061.763309.7646617v5.7559398c0 1.7675188-.162406 3.536391-.487218 5.2768421l-.230076 1.2437594c-.067669.36-.381654.6212031-.747067.6212031h-.63203c-.380301 0-.668572-.349173-.598196-.7227068l.278797-1.4954887c.303158-1.6227068.45609-3.2697745.45609-4.9181955v-4.0899248c0-.261203-.213834-.4736842-.475037-.4736842h-2.05173c-.261203 0-.47233.2111278-.47233.469624v6.3433083c0 1.0813534-.077143 2.1613534-.228722 3.2318797l-.502105 3.5066165c-.055489.3830075-.374888.6658647-.768722.6658647h-.577895c-.182707 0-.358647-.0568421-.483158-.2097744-.124511-.1312782-.167819-.331579-.142105-.5142858l.530526-3.7245112c.140752-.9771429.211128-1.9664662.211128-2.9557895v-13.24285716c0-.4249624.346466-.77142857.770075-.77142857h5.954887l1.084061-.00270677c.110977 0 .19624-.09879699.178646-.20842105-.055489-.36541353-.17188-1.12466165-.238195-1.54691729-.055489-.36947369.228722-.69969925.602255-.69969925h.617143c.377594 0 .698346.27473684.756542.64691729l.219248 1.41293233c.036541.22872181.234135.39789474.465564.39789474h3.055939c.424963 0 .768722.34511278.768722.77007519v.42225564c0 .4249624-.347819.7714286-.771428.7700752l-2.927369-.0067669c-.109624 0-.19624.1001503-.178646.208421"/><path d="m129.444019 8.45590626c-.261203 0-.499398-.16646616-.591428-.41142857l-.226015-.69969925c-.07173-.19488722-.044662-.4087218.073082-.57924812.117745-.17052631.312632-.27203007.5197-.27203007h.744361c.261203 0 .499398.16511278.591428.41142857l.224662.69834586c.073083.19488722.046015.41007519-.07173.57924812-.117744.1718797-.313984.27338346-.519699.27338346z"/><path d="m82.9967111 22.6492446h-7.9538346c-.261203 0-.4736842-.2111278-.4736842-.4736842v-3.6798496c0-.2625564.2124812-.4723309.4736842-.4723309h6.9739849c.4222557 0 .7646617-.342406.7646617-.7646616v-.4330827c0-.4209023-.342406-.7633083-.7646617-.7633083h-6.9739849c-.261203 0-.4736842-.2111278-.4736842-.4723308v-3.6757895c0-.2598496.2124812-.4709774.4736842-.4709774h7.4490225c.4209023 0 .7633083-.342406.7633083-.7646617v-.4317293c0-.42360903-.342406-.76466166-.7633083-.76466166h-7.4490225c-.261203 0-.4736842-.2124812-.4736842-.47233083v-1.76075188c0-.42090225-.3410527-.76195488-.7606015-.76195488h-.4371429c-.4195489 0-.7619549.34240601-.7619549.7606015v1.76210526c0 .25984963-.2111278.47233083-.4723308.47233083h-7.450376c-.4222556 0-.7633082.34105263-.7633082.76195486v.4371429c0 .4195489.342406.7619549.7619549.7619549h7.4517293c.261203 0 .4723308.2111278.4723308.4709774v3.6757895c0 .261203-.2111278.4723308-.4723308.4723308h-6.9766917c-.4195489 0-.7619549.3410526-.7619549.7619549v.4371429c0 .4181954.3437594.7619548.7606015.7619548h6.9780451c.261203 0 .4723308.2097745.4723308.4723309v3.6798496c0 .2625564-.2111278.4736842-.4723308.4736842h-7.9538346c-.4222556 0-.7633083.342406-.7633083.7606015v.4398496c0 .4168421.342406.7606015.7619549.7606015h7.955188c.261203 0 .4723308.2097745.4723308.4723309v4.5216541c0 .4222556.342406.7646617.7646617.7646617h.4317293c.4222556 0 .7633083-.3424061.7633083-.7646617v-4.5216541c0-.2625564.2124812-.4723309.4736842-.4723309h7.9538346c.4222556 0 .7633082-.3437594.7633082-.7633082v-.4344361c0-.4209023-.3410526-.7633083-.7633082-.7633083"/><path d="m114.63611 14.3294551c.027067-.2354887.226015-.4195488.469624-.4195488h.91218c.422256 0 .764662-.3410527.764662-.7633083v-.4317293c0-.4222557-.342406-.7646617-.764662-.7646617h-.91218c-.261203 0-.472331-.2111278-.472331-.4723308v-4.2225564c0-.42090226-.342406-.76195489-.761955-.76195489h-.438496c-.418196 0-.760602.34240601-.760602.7606015v4.22390979c0 .261203-.211128.4723308-.472331.4723308h-.906767c-.420902 0-.761954.3410526-.761954.7633083v.4357895c0 .4195488.342406.7606015.760601.7606015h.90812c.261203 0 .472331.2124812.472331.4736842l.002707 12.077594c0 .0866165-.062256.162406-.147519.1786466l-1.353383.2503759c-.372181.070376-.642857.3965414-.642857.7754887v.5778948c-.012181.3694737.282857.6428571.630676.63203.037895-.0013533.07579-.0040601.116391-.010827l4.858647-.9054136c.374887-.0690225.645564-.3965413.645564-.7754887v-.5778947c0-.3654135-.257143-.6320301-.63203-.6320301-.037895 0-.077143.0027068-.116391.0108271l-1.185564.2165413c-.110978.0216542-.212481-.0622556-.212481-.1745864z"/><path d="m106.552756 6.48673333c.422256 0 .761955.34105263.761955.76195489v15.41909778c0 1.0312782-.113684 2.0584962-.342406 3.0613533l-.921654 4.0506767c-.078496.3451128-.384361.5887218-.738947.5887218h-.644211c-.389774 0-.678045-.36-.591429-.7389473l.982557-4.3281203c.197594-.8661654.296391-1.7553384.296391-2.6431579v-13.73819551c0-.26120301-.209775-.47097744-.469624-.47097744h-15.4772935c-.2598496 0-.4723308.21112781-.4723308.47233082l.0013534 16.68045113.0013534 4.0019549c0 .423609-.3424061.7646616-.7646617.7646616h-.4317293c-.4222557 0-.7646617-.3410526-.7646617-.7646616l-.0027067-22.35518798c0-.42090226.342406-.76195489.7646616-.76195489z"/><path d="m91.4699742 12.0958311c0-.4263158.3464662-.772782.772782-.772782h9.8201508c.416842 0 .759248.3410527.759248.7578948v.4384962c0 .4222556-.342406.7646617-.764662.7646617h-9.8147368c-.4263158 0-.772782-.3464662-.772782-.772782z"/><path d="m154.681102 15.1104927h-18.836391c-.420902 0-.763308.342406-.763308.7646617v.4330827c0 .4209022.342406.7633083.763308.7633083h18.836391c.422256 0 .763308-.3424061.763308-.7633083v-.4330827c0-.4222557-.341052-.7646617-.763308-.7646617"/><path d="m161.482395 26.0975303h-.760601c-.407369 0-.741654-.3180451-.763309-.7254135l-.55624-11.0679699c-.013534-.2693233.201654-.4953384.472331-.4953384h.760601c.408722 0 .744361.3193985.764662.7267669l.554887 11.0666166c.012181.2693233-.201654.4953383-.472331.4953383"/><path d="m159.424576 12.4236205h6.8603c.423609 0 .767369-.342406.767369-.7646616v-.4547368c0-.4222557-.342406-.7646617-.764662-.7646617h-6.863007c-.422256 0-.763309.342406-.763309.7646617v.4560902c0 .4209022.341053.7633082.763309.7633082"/><path d="m167.053192 27.7416205v.7998497c0 .3803007-.281503.702406-.659097.7538346l-7.194587.9866165c-.28421.0378947-.53594-.1827068-.53594-.4696241v-.7944361c0-.3789473.281504-.702406.659098-.7538345l3.636541-.4993985c.220602-.0311279.389775-.2124812.406015-.4330827l1.009624-12.8165414c.031128-.3992481.362707-.7064662.763309-.7064662h.767368c.274737 0 .493985.2354888.470978.5102256l-.985264 12.5282707c-.021654.3018045.238196.5481203.538647.5075188l.587368-.0825564c.282858-.0378947.53594.1827068.53594.469624"/><path d="m170.572801 19.5751694h6.482707c.261203 0 .473684.2111278.473684.4723308v7.8658647c0 .261203-.212481.4723308-.473684.4723308h-6.482707c-.259849 0-.472331-.2111278-.472331-.4723308v-7.8658647c0-.261203.212482-.4723308.472331-.4723308m8.937745-7.9105263v-.4628571c0-.4195489-.338346-.7606015-.759248-.7606015h-4.096692c-.261203 0-.472331-.2111279-.472331-.47233087v-2.7162406c0-.42225564-.342406-.76466165-.763308-.76466165h-.457444c-.422256 0-.763308.34240601-.763308.76466165v9.86616537c0 .2612031-.211128.4723309-.472331.4723309h-2.843459c-.423609 0-.764661.342406-.764661.7646616v11.2479699c0 .4236091.341052.7660151.764661.7660151h9.864812c.422256 0 .763309-.342406.763309-.7660151v-11.2479699c0-.4222556-.341053-.7646616-.763309-.7646616h-4.092631c-.261203 0-.472331-.2111278-.472331-.4723309v-4.2225563c0-.2598497.211128-.4709775.472331-.4709775h4.096692c.420902 0 .759248-.3396992.759248-.7606015"/><path d="m162.904531 9.83310927h.803909c.290978 0 .512933-.25984962.464211-.54676692l-.34782-2.15729323c-.059549-.36947368-.378947-.64150376-.752481-.64150376h-.80797c-.289624 0-.512932.26255639-.46421.54947368l.350526 2.15593985c.060902.36947369.380301.64015038.753835.64015038"/></g></g></svg>