<svg height="48" viewBox="0 0 48 48" width="48" xmlns="http://www.w3.org/2000/svg"><path d="m24.0105 35.6663704c.5860943-.0022775 1.0689301.4299828 1.1317496.9859583l.0069171.1209187v5.1153205c0 .613827-.5097985 1.1114321-1.1386667 1.1114321-.5869437 0-1.0701644-.4334693-1.1319852-.9903293l-.0066815-.1211028v-5.113043c.001201-.5720749.445044-1.0424746 1.014771-1.102651l.1238957-.0065035v-.0022775zm-7.3126667-1.9153983c.4042145.0073369.7796456.2193739.9826957.5631599.180489.3055876.2004342.6740603.0598721.9935336l-.0602345.1172872-2.6156666 4.4252305c-.2024374.3441304-.5781186.5561535-.9846667.5557167-.1996282-.0009894-.3956571-.0519612-.5693333-.1480398-.2631905-.1493086-.4540006-.3954491-.5296667-.6832574-.0677028-.2432229-.0471052-.5004648.0559572-.7288294l.0583761-.1115772 2.6156667-4.427508c.2046108-.3431195.5802622-.5546245.987-.5557161zm14.6253333 0c.3616585.0005575.6988275.1678324.9127494.4462206l.0742506.1094955 2.6133334 4.427508c.3136927.5309049.1278894 1.2094741-.4153334 1.5168315-.1736762.0960785-.3697051.1470503-.5693333.1480391-.3609171-.0012765-.6971507-.168546-.9105791-.4464319l-.0740875-.1092842-2.6156667-4.4252305c-.2032744-.3436598-.2034125-.7670348-.0003624-1.1108208.2030502-.343786.5784812-.555823.985029-.5563273zm5.3526668-5.2246587c.1510377.0000939.2977601.0288372.4342401.0840715l.1327598.0639846 4.536 2.5531052c.5432227.3073573.7290261.9859265.4153334 1.5168315-.1507922.255118-.3993494.4412189-.690866.5172682-.2498713.0651852-.5137155.0449275-.7484135-.0551843l-.1147205-.0566845-4.5336667-2.5508277c-.4486897-.2498456-.6682739-.7636534-.5344913-1.2506627.122634-.4464253.5139047-.7673502.9761474-.8156107l.1276773-.0062911h.0023333zm-25.3306668.000017c.5143662.0011002.9641093.3386514 1.097322.8235866.1221117.444524-.0495474.9116999-.4216165 1.180682l-.1063721.0682789-4.53600002 2.5508277c-.54381639.3069135-1.2395659.12541-1.55400003-.4053994-.29347184-.4954221-.15105259-1.1200293.31138382-1.4506404l.10394952-.0661911 4.53600001-2.5508277c.1291416-.073392.2714318-.1209033.4185629-.1403313l.1484371-.0099853zm16.6351005-15.0271076c2.904417.0029349 5.2570801 2.3023808 5.2562246 5.1373314-.0008559 2.8349506-2.3549068 5.133043-5.2593251 5.1343046-.4643329.0000099-.8933986-.2417781-1.125568-.6342826s-.2321694-.8760928 0-1.2685973.6612351-.6342926 1.125568-.6342827c1.4660201-.0062899 2.6504529-1.1691891 2.6483049-2.6001573-.0021481-1.4309681-1.190067-2.5904745-2.6560997-2.5925712-1.4096468-.002016-2.5653756 1.0667891-2.6579214 2.4211225l-.0059504.1638402v7.7435841c-.0051525 2.8352427-2.3631576 5.1300559-5.2678778 5.1267082-2.9047203-.003355-5.2571608-2.3036029-5.2554473-5.1388496.0016714-2.7625481 2.2377029-5.0146066 5.0393325-5.1282846l.2223259-.0045023.014.0113876c.7176813.0001446 1.2993984.5680654 1.2993984 1.2685812 0 .6567336-.5112748 1.1969286-1.1665353 1.2620068l-.1328631.0065745h-.077c-1.4590016.0387401-2.6135167 1.2177692-2.5872352 2.6421703.0262815 1.424401 1.2235423 2.5620885 2.6830268 2.549525 1.4033505-.0120804 2.5450821-1.0832935 2.6313115-2.4321693l.0052303-.1631478v-7.7435841c.0051522-2.8349462 2.3626835-5.129637 5.2671004-5.1267076zm15.8822329 7.8893451c.6282239 0 1.1375.4970953 1.1375 1.1102933 0 .5723182-.4436361 1.0434979-1.0135568 1.1037783l-.1239432.006515h-5.236c-.6282239 0-1.1375-.4970952-1.1375-1.1102933 0-.5723182.4436361-1.0434979 1.0135569-1.1037782l.1239431-.0065151zm-34.47966672 0c.62822392 0 1.13750002.4970953 1.13750002 1.1102933 0 .5723182-.4436361 1.0434979-1.01355686 1.1037783l-.12394316.006515h-5.2453333c-.62822389 0-1.13749998-.4970952-1.13749998-1.1102933 0-.5723182.44363606-1.0434979 1.01355683-1.1037782l.12394315-.0065151zm31.82433342-9.6931457c.408051.0007548.7848927.2132972.9893333.5579941.2927799.4955112.1504432 1.1196545-.3114965 1.4505642l-.1038368.0662672-4.536 2.5508277c-.1727677.0964984-.3679573.1482448-.567.1503337-.5165597.0027611-.9700421-.3348925-1.1038247-.8219018-.1226339-.4464253.0516583-.9153686.4271639-1.1828704l.1073274-.0677923 4.5313334-2.5553828c.1723726-.0971599.3679507-.1482237.567-.1480396zm-34.39566674 0c.149287-.0001381.29662142.0285508.43367788.0838932l.13332214.0641464 4.53600002 2.5531052c.5388675.3105977.7235953.9852391.4153333 1.5168315-.2024374.3441304-.5781186.5561535-.9846667.5557167-.1499521-.0007204-.2978182-.0300427-.4354351-.0858121l-.1338982-.0645052-4.53600001-2.5508277c-.54322271-.3073573-.7290261-.9859265-.41533334-1.5168315.20461076-.3431194.58026213-.5546244.98700001-.5557165zm7.26600004-7.09904401c.3622858.00025134.7002037.16747938.9148236.44611426l.0745097.10960175 2.6156667 4.42750807c.3123203.53108073.1267898 1.20865343-.4153333 1.51683143-.173456.0968739-.3694982.1486334-.5693334.1503188-.3620017.0006923-.6997377-.1667415-.91304-.4459048l-.07396-.1098134-2.6156667-4.42978556c-.2018802-.3431658-.201603-.76522188.0007279-1.10813474s.5761957-.55495723.9816055-.55673581zm19.8636667-.00000001c.4030765.00405607.7769413.21610045.9792722.55901333.1798497.30481144.200052.67215581.060534.99104109l-.0598062.11709368-2.6133334 4.42750802c-.3209406.5174329-1.0068834.6893492-1.5435166.3868481-.5008578-.2823344-.6999954-.881177-.4814228-1.39062817l.0532728-.10765196 2.618-4.42750807c.2046107-.3431194.5802621-.55462445.987-.55571602zm-9.9306667-2.59637818c.6288682 0 1.1386667.49760506 1.1386667 1.11143203v5.10848796c0 .61382699-.5097985 1.11143208-1.1386667 1.11143208-.6288683 0-1.1386667-.49760509-1.1386667-1.11143208v-5.10848796c0-.61382697.5097985-1.11143203 1.1386667-1.11143203z" fill="#fff"/></svg>