<svg height="48" viewBox="0 0 48 48" width="48" xmlns="http://www.w3.org/2000/svg"><g fill="none" fill-rule="evenodd" stroke="#fff" stroke-linejoin="round"><path d="m25 10h-13c-1.6568542 0-3 1.3431458-3 3v17.0595703c0 1.6568543 1.3431458 3 3 3h7.3566255c.9971255 0 1.9290875.495428 2.4868182 1.3219847l2.3544677 3.4893203c.3089141.4578106.9304673.5785151 1.3882779.269601.0977654-.0659686.1830901-.1487118.2520303-.2444049l2.5864196-3.5901047c.5638183-.7826136 1.4695469-1.2463964 2.4341064-1.2463964h7.1412544c1.6568542 0 3-1.3431457 3-3v-9.8695763" stroke-linecap="round" stroke-width="2"/><path d="m31.3225806 5c1.2827259 0 2.3225807 1.03985477 2.3225807 2.32258065v15.28057095c0 .0957067-.0170647.1906467-.050393.2803629l-2.2721877 6.1164855-2.2721876-6.1164855c-.0333283-.0897162-.050393-.1846562-.050393-.2803629v-15.28057095c0-1.28272588 1.0398548-2.32258065 2.3225806-2.32258065z" stroke-width="2.134" transform="matrix(.7193398 .69465837 -.69465837 .7193398 20.600194 -16.98727)"/></g></svg>