<?xml version="1.0" encoding="utf-8"?>
<!-- Generator: Adobe Illustrator 21.0.0, SVG Export Plug-In . SVG Version: 6.00 Build 0)  -->
<svg version="1.1" id="图层_1" xmlns="http://www.w3.org/2000/svg" xmlns:xlink="http://www.w3.org/1999/xlink" x="0px" y="0px"
	 viewBox="0 0 15 18" style="enable-background:new 0 0 15 18;" xml:space="preserve">
<style type="text/css">
	.st0{fill:#fff;}
</style>
<title>消息 copy</title>
<desc>Created with Sketch.</desc>
<g id="Page-1">
	<g id="个人中心-我的账号" transform="translate(-1356.000000, -22.000000)">
		<g id="Group-4" transform="translate(1356.000000, 17.000000)">
			<path id="消息-copy" class="st0" d="M9.2,6.6C9.2,5.7,8.4,5,7.5,5C6.6,5,5.8,5.7,5.8,6.6c0,0.1,0,0.2,0,0.3
				C3.6,7.6,1.7,10,1.7,12.8V15c0,0,0,3.2-0.8,3.2C0.4,18.2,0,18.6,0,19c0,0.4,0.4,0.8,0.8,0.8h13.3c0.5,0,0.8-0.4,0.8-0.8
				c0-0.4-0.4-0.8-0.8-0.8c-0.8,0-0.8-3.2-0.8-3.2v-2.2c0-2.8-1.8-5.2-4.2-5.9C9.2,6.8,9.2,6.7,9.2,6.6z M10,20.6
				c0,1.3-1.1,2.4-2.5,2.4C6.1,23,5,21.9,5,20.6H10L10,20.6z"/>
		</g>
	</g>
</g>
</svg>
