<?xml version="1.0" encoding="utf-8"?>
<!-- Generator: Adobe Illustrator 21.0.0, SVG Export Plug-In . SVG Version: 6.00 Build 0)  -->
<svg version="1.1" id="图层_1" xmlns="http://www.w3.org/2000/svg" xmlns:xlink="http://www.w3.org/1999/xlink" x="0px" y="0px"
	 viewBox="0 0 46 49" style="enable-background:new 0 0 46 49;" xml:space="preserve">
<style type="text/css">
	.st0{filter:url(#Adobe_OpacityMaskFilter);}
	.st1{fill:#FFFFFF;}
	.st2{mask:url(#mask-2);fill:#A5AFBE;}
	.st3{fill:#A5AFBE;}
</style>
<title>Page 1</title>
<desc>Created with Sketch.</desc>
<g id="Page-1_1_">
	<g id="开发者服务4" transform="translate(-1101.000000, -469.000000)">
		<g id="Page-1" transform="translate(1101.000000, 468.000000)">
			<g id="Group-3" transform="translate(0.000000, 0.558600)">
				<g id="Clip-2">
				</g>
				<defs>
					<filter id="Adobe_OpacityMaskFilter" filterUnits="userSpaceOnUse" x="0" y="0.4" width="46" height="48.6">
						<feColorMatrix  type="matrix" values="1 0 0 0 0  0 1 0 0 0  0 0 1 0 0  0 0 0 1 0"/>
					</filter>
				</defs>
				<mask maskUnits="userSpaceOnUse" x="0" y="0.4" width="46" height="48.6" id="mask-2">
					<g class="st0">
						<polygon id="path-1" class="st1" points="46,0.4 46,49 0,49 0,0.4 						"/>
					</g>
				</mask>
				<path id="Fill-1" class="st2" d="M45.5,4.1H29.8V0.9c0-0.3-0.2-0.5-0.5-0.5c-0.3,0-0.5,0.2-0.5,0.5v3.2H17.1V0.9
					c0-0.3-0.2-0.5-0.5-0.5c-0.3,0-0.5,0.2-0.5,0.5v3.2H0.5C0.2,4.1,0,4.4,0,4.6v43.9C0,48.8,0.2,49,0.5,49h27.6
					c0.3,0,0.5-0.2,0.5-0.5c0-0.3-0.2-0.5-0.5-0.5H1V5.1h15.1v3.7c0,0.3,0.2,0.5,0.5,0.5c0.3,0,0.5-0.2,0.5-0.5V5.1h11.7v3.7
					c0,0.3,0.2,0.5,0.5,0.5c0.3,0,0.5-0.2,0.5-0.5V5.1H45v23.6c0,0.3,0.2,0.5,0.5,0.5S46,29,46,28.7V4.6C46,4.4,45.8,4.1,45.5,4.1"
					/>
			</g>
			<path id="Fill-4" class="st3" d="M7.6,16.6h30.8c0.3,0,0.5-0.2,0.5-0.5c0-0.3-0.2-0.5-0.5-0.5H7.6c-0.3,0-0.5,0.2-0.5,0.5
				C7.1,16.4,7.3,16.6,7.6,16.6"/>
			<path id="Fill-6" class="st3" d="M38.9,23.6c0-0.3-0.2-0.5-0.5-0.5H7.6c-0.3,0-0.5,0.2-0.5,0.5c0,0.3,0.2,0.5,0.5,0.5h30.8
				C38.7,24.1,38.9,23.9,38.9,23.6"/>
			<path id="Fill-8" class="st3" d="M7.6,38.1c-0.3,0-0.5,0.2-0.5,0.5c0,0.3,0.2,0.5,0.5,0.5h10.1c0.3,0,0.5-0.2,0.5-0.5
				c0-0.3-0.2-0.5-0.5-0.5H7.6z"/>
			<path id="Fill-10" class="st3" d="M21.2,31.1c0-0.3-0.2-0.5-0.5-0.5H7.6c-0.3,0-0.5,0.2-0.5,0.5c0,0.3,0.2,0.5,0.5,0.5h13.1
				C20.9,31.6,21.2,31.4,21.2,31.1"/>
			<path id="Fill-12" class="st3" d="M39,42.5c-1.7,1.8-4,2.8-6.5,2.8c-4.9,0-8.8-4-8.8-8.8c0-4.9,4-8.8,8.8-8.8s8.8,4,8.8,8.8
				C41.3,38.7,40.5,40.9,39,42.5L39,42.5z M39.9,43C39.9,43,39.9,43,39.9,43c1.5-1.8,2.4-4.1,2.4-6.5c0-5.4-4.4-9.8-9.8-9.8
				c-5.4,0-9.8,4.4-9.8,9.8c0,5.4,4.4,9.8,9.8,9.8c2.5,0,4.9-1,6.7-2.7c0,0,0,0,0,0l5.4,5.4c0.1,0.1,0.2,0.1,0.4,0.1
				c0.1,0,0.3,0,0.4-0.1c0.2-0.2,0.2-0.5,0-0.7L39.9,43z"/>
		</g>
	</g>
</g>
</svg>
