<?xml version="1.0" encoding="utf-8"?>
<!-- Generator: Adobe Illustrator 21.0.0, SVG Export Plug-In . SVG Version: 6.00 Build 0)  -->
<svg version="1.1" id="图层_1" xmlns="http://www.w3.org/2000/svg" xmlns:xlink="http://www.w3.org/1999/xlink" x="0px" y="0px"
	 viewBox="0 0 49 50" style="enable-background:new 0 0 49 50;" xml:space="preserve">
<style type="text/css">
	.st0{filter:url(#Adobe_OpacityMaskFilter);}
	.st1{fill:#FFFFFF;}
	.st2{mask:url(#mask-2);fill:#A5AFBE;}
	.st3{fill:#A5AFBE;}
</style>
<title>Page 1</title>
<desc>Created with Sketch.</desc>
<g id="Page-1_1_">
	<g id="开发者服务4" transform="translate(-721.000000, -609.000000)">
		<g id="Page-1" transform="translate(721.000000, 608.000000)">
			<g id="Group-3" transform="translate(0.000000, 0.927700)">
				<g id="Clip-2">
				</g>
				<defs>
					<filter id="Adobe_OpacityMaskFilter" filterUnits="userSpaceOnUse" x="0" y="0.1" width="40.2" height="49.9">
						<feColorMatrix  type="matrix" values="1 0 0 0 0  0 1 0 0 0  0 0 1 0 0  0 0 0 1 0"/>
					</filter>
				</defs>
				<mask maskUnits="userSpaceOnUse" x="0" y="0.1" width="40.2" height="49.9" id="mask-2">
					<g class="st0">
						<polygon id="path-1" class="st1" points="20.1,0.1 0,0.1 0,50 20.1,50 40.2,50 40.2,0.1 						"/>
					</g>
				</mask>
				<path id="Fill-1" class="st2" d="M29.7,49H1V5h12.2v3.5c0,0.3,0.2,0.5,0.5,0.5c0.3,0,0.5-0.2,0.5-0.5V5h11.7v3.5
					c0,0.3,0.2,0.5,0.5,0.5c0.3,0,0.5-0.2,0.5-0.5V5h12.2v18.3c0,0.3,0.2,0.5,0.5,0.5s0.5-0.2,0.5-0.5V4.5C40.2,4.2,40,4,39.7,4
					H26.9V0.6c0-0.3-0.2-0.5-0.5-0.5c-0.3,0-0.5,0.2-0.5,0.5V4H14.2V0.6c0-0.3-0.2-0.5-0.5-0.5c-0.3,0-0.5,0.2-0.5,0.5V4H0.5
					C0.2,4,0,4.2,0,4.5v45C0,49.8,0.2,50,0.5,50h29.2c0.3,0,0.5-0.2,0.5-0.5S30,49,29.7,49"/>
			</g>
			<path id="Fill-4" class="st3" d="M33.7,15.4c0-0.3-0.2-0.5-0.5-0.5H7c-0.3,0-0.5,0.2-0.5,0.5s0.2,0.5,0.5,0.5h26.3
				C33.5,15.9,33.7,15.6,33.7,15.4"/>
			<path id="Fill-6" class="st3" d="M30.6,26.1c0-0.3-0.2-0.5-0.5-0.5H7c-0.3,0-0.5,0.2-0.5,0.5c0,0.3,0.2,0.5,0.5,0.5h23.1
				C30.3,26.6,30.6,26.4,30.6,26.1"/>
			<path id="Fill-8" class="st3" d="M7,36.4c-0.3,0-0.5,0.2-0.5,0.5c0,0.3,0.2,0.5,0.5,0.5h18.4c0.3,0,0.5-0.2,0.5-0.5
				c0-0.3-0.2-0.5-0.5-0.5H7z"/>
			<path id="Fill-10" class="st3" d="M44.7,31.1l-5.9,6.7c-0.4,0.4-0.6,0.9-0.6,1.5v8.4l-2.4-2.3v-6.3c0-0.6-0.2-1.1-0.6-1.5
				l-5.6-6.5c0,0-0.1-0.1-0.1-0.1c-0.1-0.1-0.2-0.3-0.2-0.5c0-0.4,0.3-0.7,0.7-0.7h14.2c0.4,0,0.7,0.3,0.7,0.7
				C45,30.8,44.9,30.9,44.7,31.1l0.4,0.3L44.7,31.1z M45.6,31.7L45.6,31.7L45.6,31.7c0.3-0.3,0.4-0.7,0.4-1.1c0-1-0.8-1.7-1.7-1.7
				H30.1c-1,0-1.7,0.8-1.7,1.7c0,0.4,0.1,0.8,0.4,1.1l5.8,6.7c0.2,0.2,0.3,0.5,0.3,0.8v6.5c0,0.1,0.1,0.3,0.2,0.4l3.4,3.3
				c0.1,0.1,0.2,0.1,0.3,0.1c0.1,0,0.1,0,0.2,0c0.2-0.1,0.3-0.3,0.3-0.5v-9.6c0-0.3,0.1-0.6,0.3-0.8L45.6,31.7
				C45.6,31.7,45.6,31.7,45.6,31.7L45.6,31.7z"/>
			<path id="Fill-12" class="st3" d="M40.9,39.6c0,0.3,0.2,0.5,0.5,0.5h6.6c0.3,0,0.5-0.2,0.5-0.5c0-0.3-0.2-0.5-0.5-0.5h-6.6
				C41.1,39.1,40.9,39.4,40.9,39.6"/>
			<path id="Fill-14" class="st3" d="M48,43.1h-6.6c-0.3,0-0.5,0.2-0.5,0.5s0.2,0.5,0.5,0.5h6.6c0.3,0,0.5-0.2,0.5-0.5
				S48.3,43.1,48,43.1"/>
			<path id="Fill-16" class="st3" d="M48,47h-6.6c-0.3,0-0.5,0.2-0.5,0.5s0.2,0.5,0.5,0.5h6.6c0.3,0,0.5-0.2,0.5-0.5S48.3,47,48,47"
				/>
		</g>
	</g>
</g>
</svg>
