<?xml version="1.0" standalone="no"?><!DOCTYPE svg PUBLIC "-//W3C//DTD SVG 1.1//EN" "http://www.w3.org/Graphics/SVG/1.1/DTD/svg11.dtd"><svg t="1531809418239" class="icon" style="" viewBox="0 0 1024 1024" version="1.1" xmlns="http://www.w3.org/2000/svg" p-id="6612" xmlns:xlink="http://www.w3.org/1999/xlink" width="200" height="200"><defs><style type="text/css"></style></defs><path d="M977.144 61.856H46.896A46.968 46.968 0 0 0 0 108.784v169.44a46.968 46.968 0 0 0 46.896 46.928h40.576v553.664c0 45.96 37.392 83.328 83.352 83.328h682.32c45.992 0 83.4-37.368 83.4-83.328V325.144h40.592c25.832 0 46.856-21.048 46.856-46.928v-169.44c0.008-25.864-21.024-46.92-46.848-46.92z m-102.32 816.96a21.68 21.68 0 0 1-21.672 21.608h-682.32a21.656 21.656 0 0 1-21.624-21.608V325.144h725.616v553.672z m87.456-615.392h-25.736v-0.12h-61.728v0.12H149.2v-0.12h-61.728v0.12H61.728v-139.84h900.552v139.84z" fill="#EE7684" p-id="6613"></path><path d="M319.136 516.824h385.776a30.856 30.856 0 1 0 0-61.72H319.136a30.864 30.864 0 0 0 0 61.72z" fill="#EE7684" p-id="6614"></path></svg>