<svg id="图层_1" data-name="图层 1" xmlns="http://www.w3.org/2000/svg" viewBox="0 0 15 15"><defs><style>.cls-1{fill:#FFFFFF;}</style></defs><title>隐私政策</title><path class="cls-1" d="M7.79.1a7.5,7.5,0,1,0,7.5,7.5A7.5,7.5,0,0,0,7.79.1Zm0,14a6.5,6.5,0,1,1,6.5-6.5A6.51,6.51,0,0,1,7.79,14.1Z" transform="translate(-0.29 -0.1)"/><path class="cls-1" d="M9.86,6.23V4.61A1.86,1.86,0,0,0,8,2.75h-.4A1.86,1.86,0,0,0,5.73,4.61v.5a.46.46,0,1,0,.92,0v-.5a.94.94,0,0,1,.93-.93H8a.93.93,0,0,1,.93.93V5.74a3.42,3.42,0,0,0-1.14-.21,3.49,3.49,0,1,0,2.07.7ZM7.79,11.53A2.53,2.53,0,1,1,10.32,9,2.53,2.53,0,0,1,7.79,11.53Z" transform="translate(-0.29 -0.1)"/><path class="cls-1" d="M7.79,8.35a.49.49,0,0,0-.49.49v1.45a.49.49,0,0,0,1,0V8.84A.49.49,0,0,0,7.79,8.35Z" transform="translate(-0.29 -0.1)"/></svg>