<svg id="图层_1" data-name="图层 1" xmlns="http://www.w3.org/2000/svg" viewBox="0 0 15 15.19"><defs><style>.cls-1{fill:#FFFFFF;}</style></defs><title>服务条款</title><path class="cls-1" d="M14.32,1.85H8.91a.5.5,0,0,1,0-1h5.4a.5.5,0,0,1,0,1Z"/><path class="cls-1" d="M14.32,6H8.91a.5.5,0,0,1,0-1h5.4a.5.5,0,0,1,0,1Z"/><path class="cls-1" d="M14.32,10.18H8.91a.5.5,0,0,1,0-1h5.4a.5.5,0,0,1,0,1Z"/><path class="cls-1" d="M14.32,14.35H8.91a.5.5,0,0,1,0-1h5.4a.5.5,0,0,1,0,1Z"/><path class="cls-1" d="M5.66,7.15h-4A1.52,1.52,0,0,1,.18,5.63v-4A1.52,1.52,0,0,1,1.7.15h4A1.52,1.52,0,0,1,7.18,1.67v4A1.52,1.52,0,0,1,5.66,7.15Zm-4-6a.52.52,0,0,0-.52.52v4a.52.52,0,0,0,.52.52h4a.52.52,0,0,0,.52-.52v-4a.52.52,0,0,0-.52-.52Z"/><path class="cls-1" d="M5.66,15h-4A1.52,1.52,0,0,1,.18,13.53v-4A1.52,1.52,0,0,1,1.7,8h4A1.52,1.52,0,0,1,7.18,9.56v4A1.52,1.52,0,0,1,5.66,15Zm-4-6a.52.52,0,0,0-.52.52v4A.52.52,0,0,0,1.7,14h4a.52.52,0,0,0,.52-.52v-4A.52.52,0,0,0,5.66,9Z"/></svg>