<?xml version="1.0" encoding="utf-8"?>
<!-- Generator: Adobe Illustrator 21.0.0, SVG Export Plug-In . SVG Version: 6.00 Build 0)  -->
<svg version="1.1" id="图层_1" xmlns="http://www.w3.org/2000/svg" xmlns:xlink="http://www.w3.org/1999/xlink" x="0px" y="0px"
	 viewBox="0 0 49 50" style="enable-background:new 0 0 49 50;" xml:space="preserve">
<style type="text/css">
	.st0{filter:url(#Adobe_OpacityMaskFilter);}
	.st1{fill:#FFFFFF;}
	.st2{mask:url(#mask-2);fill:#A5AFBE;}
	.st3{filter:url(#Adobe_OpacityMaskFilter_1_);}
	.st4{mask:url(#mask-4);fill:#A5AFBE;}
	.st5{fill:#A5AFBE;}
</style>
<title>Page 1</title>
<desc>Created with Sketch.</desc>
<g id="Page-1_1_">
	<g id="开发者服务4" transform="translate(-721.000000, -469.000000)">
		<g id="Page-1" transform="translate(721.000000, 468.000000)">
			<g id="Group-3" transform="translate(30.000000, 27.926800)">
				<g id="Clip-2">
				</g>
				<defs>
					<filter id="Adobe_OpacityMaskFilter" filterUnits="userSpaceOnUse" x="0.4" y="0.5" width="18.6" height="21.9">
						<feColorMatrix  type="matrix" values="1 0 0 0 0  0 1 0 0 0  0 0 1 0 0  0 0 0 1 0"/>
					</filter>
				</defs>
				<mask maskUnits="userSpaceOnUse" x="0.4" y="0.5" width="18.6" height="21.9" id="mask-2">
					<g class="st0">
						<polygon id="path-1" class="st1" points="19,0.5 19,22.4 0.4,22.4 0.4,0.5 						"/>
					</g>
				</mask>
				<path id="Fill-1" class="st2" d="M17.8,13.4L17.8,13.4l-7.7,7.7c-0.3,0.3-0.7,0.3-0.9,0l-7.7-7.7c-0.2-0.2-0.2-0.5-0.2-0.7
					c0.1-0.3,0.3-0.4,0.6-0.4h2.8c0.3,0,0.5-0.2,0.5-0.5V2.1c0-0.4,0.3-0.7,0.7-0.7h7.5c0.4,0,0.7,0.3,0.7,0.7v9.7
					c0,0.3,0.2,0.5,0.5,0.5h2.8c0.3,0,0.5,0.2,0.6,0.4C18.1,12.9,18,13.3,17.8,13.4 M18.9,12.3c-0.3-0.6-0.9-1-1.5-1h-2.3V2.1
					c0-0.9-0.7-1.7-1.7-1.7H5.9C5,0.5,4.3,1.2,4.3,2.1v9.2H2c-0.7,0-1.3,0.4-1.5,1c-0.2,0.6-0.1,1.3,0.4,1.8l7.6,7.7
					c0.3,0.3,0.7,0.5,1.2,0.5c0.4,0,0.9-0.2,1.2-0.5l7.7-7.7C19,13.7,19.1,13,18.9,12.3"/>
			</g>
			<g id="Group-6" transform="translate(0.000000, 0.926800)">
				<g id="Clip-5">
				</g>
				<defs>
					<filter id="Adobe_OpacityMaskFilter_1_" filterUnits="userSpaceOnUse" x="0" y="0.1" width="40.2" height="49.9">
						<feColorMatrix  type="matrix" values="1 0 0 0 0  0 1 0 0 0  0 0 1 0 0  0 0 0 1 0"/>
					</filter>
				</defs>
				<mask maskUnits="userSpaceOnUse" x="0" y="0.1" width="40.2" height="49.9" id="mask-4">
					<g class="st3">
						<polygon id="path-3" class="st1" points="20.1,0.1 0,0.1 0,50 20.1,50 40.2,50 40.2,0.1 						"/>
					</g>
				</mask>
				<path id="Fill-4" class="st4" d="M29.7,49H1V5h12.2v3.5c0,0.3,0.2,0.5,0.5,0.5c0.3,0,0.5-0.2,0.5-0.5V5h11.7v3.5
					c0,0.3,0.2,0.5,0.5,0.5c0.3,0,0.5-0.2,0.5-0.5V5h12.2v18.3c0,0.3,0.2,0.5,0.5,0.5s0.5-0.2,0.5-0.5V4.5C40.2,4.2,40,4,39.7,4
					H26.9V0.6c0-0.3-0.2-0.5-0.5-0.5c-0.3,0-0.5,0.2-0.5,0.5V4H14.2V0.6c0-0.3-0.2-0.5-0.5-0.5c-0.3,0-0.5,0.2-0.5,0.5V4H0.5
					C0.2,4,0,4.2,0,4.5v45C0,49.8,0.2,50,0.5,50h29.2c0.3,0,0.5-0.2,0.5-0.5S30,49,29.7,49"/>
			</g>
			<path id="Fill-7" class="st5" d="M33.7,15.4c0-0.3-0.2-0.5-0.5-0.5H7c-0.3,0-0.5,0.2-0.5,0.5s0.2,0.5,0.5,0.5h26.3
				C33.5,15.9,33.7,15.6,33.7,15.4"/>
			<path id="Fill-9" class="st5" d="M30.6,26.1c0-0.3-0.2-0.5-0.5-0.5H7c-0.3,0-0.5,0.2-0.5,0.5c0,0.3,0.2,0.5,0.5,0.5h23.1
				C30.3,26.6,30.6,26.4,30.6,26.1"/>
			<path id="Fill-11" class="st5" d="M7,36.4c-0.3,0-0.5,0.2-0.5,0.5c0,0.3,0.2,0.5,0.5,0.5h18.4c0.3,0,0.5-0.2,0.5-0.5
				c0-0.3-0.2-0.5-0.5-0.5H7z"/>
		</g>
	</g>
</g>
</svg>
