<?xml version="1.0" encoding="utf-8"?>
<!-- Generator: Adobe Illustrator 21.0.0, SVG Export Plug-In . SVG Version: 6.00 Build 0)  -->
<svg version="1.1" id="图层_1" xmlns="http://www.w3.org/2000/svg" xmlns:xlink="http://www.w3.org/1999/xlink" x="0px" y="0px"
	 viewBox="0 0 53 45" style="enable-background:new 0 0 53 45;" xml:space="preserve">
<style type="text/css">
	.st0{filter:url(#Adobe_OpacityMaskFilter);}
	.st1{fill:#FFFFFF;}
	.st2{mask:url(#mask-2);fill:#A5AFBE;}
</style>
<title>Page 1</title>
<desc>Created with Sketch.</desc>
<g id="Page-1_1_">
	<g id="开发者服务4" transform="translate(-721.000000, -750.000000)">
		<g id="Page-1" transform="translate(721.000000, 750.000000)">
			<g id="Clip-2">
			</g>
			<defs>
				<filter id="Adobe_OpacityMaskFilter" filterUnits="userSpaceOnUse" x="0" y="0" width="53" height="45">
					<feColorMatrix  type="matrix" values="1 0 0 0 0  0 1 0 0 0  0 0 1 0 0  0 0 0 1 0"/>
				</filter>
			</defs>
			<mask maskUnits="userSpaceOnUse" x="0" y="0" width="53" height="45" id="mask-2">
				<g class="st0">
					<polygon id="path-1" class="st1" points="0,45 0,0 53,0 53,45 					"/>
				</g>
			</mask>
			<path id="Fill-1" class="st2" d="M49.1,27.5c0.4-1.6,0.6-3.3,0.6-5c0-1.2-0.1-2.4-0.3-3.5c1.7,1.3,2.6,2.7,2.6,4.2
				C52,24.7,50.9,26.2,49.1,27.5 M27.1,44c-9,0-16.8-5.6-19.9-13.5c3.1,1.3,7,2.3,11.5,2.8c0,1.9,1.6,3.5,3.5,3.5
				c1.8,0,3.2-1.3,3.5-3c0.3,0,0.6,0,0.8,0c8.6,0,16-1.5,20.8-4C44.4,38.1,36.4,44,27.1,44 M1,23.1c0-1.9,1.5-3.6,4.1-5.1
				c-0.3,1.5-0.5,3-0.5,4.5c0,2.1,0.3,4.1,0.8,6C2.7,26.9,1,25.1,1,23.1 M33.6,13.5c0-1.4,1.1-2.5,2.5-2.5s2.5,1.1,2.5,2.5
				S37.5,16,36.1,16S33.6,14.9,33.6,13.5 M24.7,33.3c0,1.4-1.1,2.5-2.5,2.5c-1.4,0-2.5-1.1-2.5-2.5c0-1.4,1.1-2.5,2.5-2.5
				C23.6,30.8,24.7,31.9,24.7,33.3 M48.6,22.5c0,2-0.3,4-0.8,5.8c-4.6,2.6-12.5,4.4-21.3,4.4c-0.3,0-0.6,0-0.8,0
				c-0.2-1.7-1.7-3-3.4-3c-1.6,0-2.9,1.1-3.3,2.5c-4.8-0.6-9-1.7-12.2-3.2C6,27,5.6,24.8,5.6,22.5c0-1.8,0.2-3.5,0.6-5.1
				c4.7-2.3,12.1-3.8,20.2-3.8c2.1,0,4.2,0.1,6.1,0.3c0.2,1.8,1.6,3.2,3.5,3.2c1.4,0,2.7-0.9,3.2-2.1c3.6,0.8,6.7,2,8.9,3.3
				C48.5,19.6,48.6,21,48.6,22.5 M27.1,1C37,1,45.3,7.7,47.8,16.8c-2.2-1.2-5-2.2-8.3-2.9c0-0.1,0-0.2,0-0.4c0-1.9-1.6-3.5-3.5-3.5
				c-1.7,0-3.1,1.2-3.4,2.8c-2-0.2-4-0.3-6.2-0.3c-8,0-15,1.4-19.9,3.5C9.4,7.3,17.5,1,27.1,1 M53,23.1c0-2.1-1.4-4-3.9-5.6
				C46.8,7.5,37.8,0,27.1,0C16.8,0,8,7.1,5.4,16.6C2,18.4,0,20.7,0,23.1c0,2.6,2.2,4.9,5.9,6.7C9,38.7,17.3,45,27.1,45
				c10.1,0,18.7-6.7,21.5-16C51.4,27.4,53,25.3,53,23.1"/>
		</g>
	</g>
</g>
</svg>
