<?xml version="1.0" encoding="utf-8"?>
<!-- Generator: Adobe Illustrator 21.0.0, SVG Export Plug-In . SVG Version: 6.00 Build 0)  -->
<svg version="1.1" id="图层_1" xmlns="http://www.w3.org/2000/svg" xmlns:xlink="http://www.w3.org/1999/xlink" x="0px" y="0px"
	 viewBox="0 0 51 51" style="enable-background:new 0 0 51 51;" xml:space="preserve">
<style type="text/css">
	.st0{fill:#A5AFBE;}
</style>
<title>Page 1</title>
<desc>Created with Sketch.</desc>
<g id="Page-1_1_">
	<g id="开发者服务4" transform="translate(-1101.000000, -746.000000)">
		<g id="Page-1" transform="translate(1101.000000, 746.000000)">
			<path id="Fill-1" class="st0" d="M25.5,50C12,50,1,39,1,25.5S12,1,25.5,1S50,12,50,25.5S39,50,25.5,50 M25.5,0
				C11.4,0,0,11.4,0,25.5S11.4,51,25.5,51S51,39.6,51,25.5S39.6,0,25.5,0"/>
			<path id="Fill-3" class="st0" d="M25.5,40.4c-1.4,0-2.9-0.2-4.4-0.5c-0.1,0-0.3,0-0.4,0.1l-5.5,3.3l0.1-5.3
				c0-0.2-0.1-0.3-0.2-0.4c-4.9-2.9-7.8-7.7-7.8-12.7c0-8.6,8.2-15.6,18.2-15.6s18.2,7,18.2,15.6S35.6,40.4,25.5,40.4 M25.5,8.3
				c-10.6,0-19.2,7.4-19.2,16.6c0,5.3,3,10.3,8,13.4l-0.1,5.9c0,0.2,0.1,0.4,0.3,0.4c0.1,0,0.2,0.1,0.2,0.1c0.1,0,0.2,0,0.3-0.1
				l6.1-3.7c1.5,0.3,3,0.5,4.4,0.5c10.6,0,19.2-7.4,19.2-16.6S36.1,8.3,25.5,8.3"/>
			<path id="Fill-5" class="st0" d="M36.2,27c-1.2,0-2.2-1-2.2-2.2s1-2.2,2.2-2.2c1.2,0,2.2,1,2.2,2.2S37.4,27,36.2,27 M36.2,21.7
				c-1.8,0-3.2,1.4-3.2,3.2c0,1.8,1.4,3.2,3.2,3.2c1.8,0,3.2-1.4,3.2-3.2C39.4,23.1,38,21.7,36.2,21.7"/>
			<path id="Fill-7" class="st0" d="M25.5,27c-1.2,0-2.2-1-2.2-2.2s1-2.2,2.2-2.2s2.2,1,2.2,2.2S26.7,27,25.5,27 M25.5,21.7
				c-1.8,0-3.2,1.4-3.2,3.2c0,1.8,1.4,3.2,3.2,3.2c1.8,0,3.2-1.4,3.2-3.2C28.7,23.1,27.3,21.7,25.5,21.7"/>
			<path id="Fill-9" class="st0" d="M14.8,27c-1.2,0-2.2-1-2.2-2.2s1-2.2,2.2-2.2s2.2,1,2.2,2.2S16,27,14.8,27 M14.8,21.7
				c-1.8,0-3.2,1.4-3.2,3.2c0,1.8,1.4,3.2,3.2,3.2s3.2-1.4,3.2-3.2C18,23.1,16.5,21.7,14.8,21.7"/>
		</g>
	</g>
</g>
</svg>
