<?xml version="1.0" encoding="utf-8"?>
<!-- Generator: Adobe Illustrator 21.0.0, SVG Export Plug-In . SVG Version: 6.00 Build 0)  -->
<svg version="1.1" id="图层_1" xmlns="http://www.w3.org/2000/svg" xmlns:xlink="http://www.w3.org/1999/xlink" x="0px" y="0px"
	 viewBox="0 0 14 14" style="enable-background:new 0 0 14 14;" xml:space="preserve">
<style type="text/css">
	.st0{fill:#A5AFBE;}
</style>
<title>Page 1</title>
<desc>Created with Sketch.</desc>
<g id="Page-1_1_">
	<g id="开发者服务8" transform="translate(-1188.000000, -369.000000)">
		<g id="Group-22" transform="translate(701.000000, 363.000000)">
			<g id="Group-20" transform="translate(477.000000, 0.000000)">
				<path id="Page-1" class="st0" d="M15.6,16.2c-2.5,0-4.6-2.1-4.6-4.6C11,9.1,13.1,7,15.6,7s4.6,2.1,4.6,4.6
					C20.2,14.1,18.1,16.2,15.6,16.2 M23.9,18.9L20,15.1c0.8-1,1.2-2.2,1.2-3.5c0-3.1-2.5-5.6-5.6-5.6C12.5,6,10,8.5,10,11.6
					c0,3.1,2.5,5.6,5.6,5.6c1.4,0,2.7-0.5,3.7-1.4l3.8,3.8c0.1,0.1,0.2,0.1,0.4,0.1c0.1,0,0.3-0.1,0.4-0.1
					C24.1,19.4,24.1,19.1,23.9,18.9"/>
			</g>
		</g>
	</g>
</g>
</svg>
