<?xml version="1.0" encoding="utf-8"?>
<!-- Generator: Adobe Illustrator 21.0.0, SVG Export Plug-In . SVG Version: 6.00 Build 0)  -->
<svg version="1.1" id="图层_1" xmlns="http://www.w3.org/2000/svg" xmlns:xlink="http://www.w3.org/1999/xlink" x="0px" y="0px"
	 viewBox="0 0 79 79" style="enable-background:new 0 0 79 79;" xml:space="preserve">
<style type="text/css">
	.st0{fill:#EC5466;}
</style>
<title>Page 1</title>
<desc>Created with Sketch.</desc>
<g id="Page-1_1_">
	<g id="注册-3" transform="translate(-922.000000, -385.000000)">
		<g id="Page-1" transform="translate(922.000000, 385.000000)">
			<path id="Fill-1" class="st0" d="M39.5,79C17.7,79,0,61.3,0,39.5S17.7,0,39.5,0C44.8,0,50,1,54.9,3.1c0.8,0.3,1.1,1.2,0.8,2
				c-0.3,0.8-1.2,1.1-2,0.8C49.2,4,44.4,3,39.5,3C19.4,3,3,19.4,3,39.5S19.4,76,39.5,76S76,59.6,76,39.5c0-5-1-9.9-3-14.4
				c-0.3-0.8,0-1.6,0.8-2c0.8-0.3,1.6,0,2,0.8c2.1,4.9,3.2,10.2,3.2,15.6C79,61.3,61.3,79,39.5,79"/>
			<path id="Fill-3" class="st0" d="M36.2,51.8c-0.4,0-0.7-0.1-1-0.4L23.1,40.9c-0.6-0.5-0.7-1.5-0.1-2.1s1.5-0.7,2.1-0.2l11,9.6
				l17.7-20.5c0.5-0.6,1.5-0.7,2.1-0.2c0.6,0.5,0.7,1.5,0.2,2.1L37.4,51.3c-0.3,0.3-0.6,0.5-1,0.5C36.3,51.8,36.3,51.8,36.2,51.8"/>
		</g>
	</g>
</g>
</svg>
