<?xml version="1.0" standalone="no"?><!DOCTYPE svg PUBLIC "-//W3C//DTD SVG 1.1//EN" "http://www.w3.org/Graphics/SVG/1.1/DTD/svg11.dtd"><svg t="1537432608814" class="icon" style="" viewBox="0 0 1034 1024" version="1.1" xmlns="http://www.w3.org/2000/svg" p-id="1361" xmlns:xlink="http://www.w3.org/1999/xlink" width="32.3125" height="32"><defs><style type="text/css"></style></defs><path d="M496.792079 719.43604L696.725545 344.712871l-276.581387 251.032079zM302.536238 525.180198l93.680792 47.854257 270.092673-245.354455z" p-id="1362" fill="#ec5466"></path><path d="M534.507723 70.970297c-233.593663 0-422.98297 189.389307-422.982971 422.98297S300.914059 916.530693 534.507723 916.530693 957.085149 727.141386 957.085149 493.953267 767.695842 70.970297 534.507723 70.970297z m242.110099 193.850297l-264.41505 495.575446c-2.838812 5.272079-8.110891 8.92198-14.194059 8.92198h-0.405545c-5.677624 0-10.949703-2.838812-14.194059-7.705347l-96.519604-155.729109-128.152079-64.887128c-5.272079-2.838812-8.92198-8.516436-8.92198-14.599604s3.244356-11.760792 8.516435-14.599604L754.312871 242.515644c6.488713-3.649901 14.194059-2.433267 19.466139 2.838811 5.272079 4.866535 6.488713 12.977426 2.838812 19.466139z" p-id="1363" fill="#ec5466"></path></svg>