<?xml version="1.0" standalone="no"?><!DOCTYPE svg PUBLIC "-//W3C//DTD SVG 1.1//EN" "http://www.w3.org/Graphics/SVG/1.1/DTD/svg11.dtd"><svg t="1537432836629" class="icon" style="" viewBox="0 0 1024 1024" version="1.1" xmlns="http://www.w3.org/2000/svg" p-id="2031" xmlns:xlink="http://www.w3.org/1999/xlink" width="28" height="28"><defs><style type="text/css"></style></defs><path d="M525.1 242.9h-26.2c-78.8 0-144.4 13.1-203.5 45.9-6.6 45.9-13.1 236.3 19.7 334.8 0 0 26.3 91.9 203.5 151 170.7-59.1 203.5-151 203.5-151 32.8-98.5 19.7-288.8 19.7-334.8-72.3-26.2-137.9-45.9-216.7-45.9zM649.8 407L479.2 577.6s-6.6 6.6-13.1 6.6h-6.6c-6.6 0-6.6 0-13.1-6.6l-72.2-78.8c-6.6-6.6-6.6-19.7 0-19.7 6.6-6.6 19.7-6.6 19.7 0l72.2 72.2 164.1-170.7c6.6-6.6 19.7-6.6 19.7 0s6.5 19.8-0.1 26.4z" fill="#ec5466" p-id="2032"></path><path d="M512 0C229.7 0 0 229.7 0 512s229.7 512 512 512 512-229.7 512-512S794.3 0 512 0z m236.3 636.7c0 6.6-32.8 111.6-236.3 183.8-203.5-65.6-236.3-177.2-236.3-183.8C236.3 512 256 282.3 256 275.7c0-6.6 6.6-13.1 13.1-13.1 65.6-32.8 144.4-52.5 229.7-52.5H525c85.3 0 164.1 19.7 229.7 52.5 6.6 0 6.6 6.6 13.1 13.1 0.2 6.6 19.9 236.3-19.5 361z" fill="#ec5466" p-id="2033"></path></svg>