<?xml version="1.0" encoding="utf-8"?>
<!-- Generator: Adobe Illustrator 21.0.0, SVG Export Plug-In . SVG Version: 6.00 Build 0)  -->
<svg version="1.1" id="图层_1" xmlns="http://www.w3.org/2000/svg" xmlns:xlink="http://www.w3.org/1999/xlink" x="0px" y="0px"
	 viewBox="0 0 15 14" style="enable-background:new 0 0 15 14;" xml:space="preserve">
<style type="text/css">
	.st0{fill:#2C2C3C;}
	.st1{filter:url(#Adobe_OpacityMaskFilter);}
	.st2{fill:#FFFFFF;}
	.st3{mask:url(#mask-2);fill:#2C2C3C;}
</style>
<title>Page 1</title>
<desc>Created with Sketch.</desc>
<g id="Page-1_1_">
	<g id="开发者服务1" transform="translate(-481.000000, -297.000000)">
		<g id="Page-1" transform="translate(481.000000, 297.000000)">
			<path id="Fill-1" class="st0" d="M11.6,11.1c-1,1.2-2.5,1.8-4.1,1.9c-1.5,0-3.1-0.6-4.1-1.8c-0.2-0.2-0.5-0.2-0.7,0
				s-0.2,0.5,0,0.7c1.2,1.3,3,2.1,4.8,2.1h0.1c1.8,0,3.6-0.8,4.8-2.2c0.2-0.2,0.2-0.5,0-0.7C12.1,10.9,11.8,10.9,11.6,11.1"/>
			<path id="Fill-3" class="st0" d="M10,2.6c1.6,0.8,2.7,2.3,2.9,4.1c0,0.2,0.3,0.4,0.5,0.4c0,0,0,0,0.1,0c0.3,0,0.5-0.3,0.4-0.6
				c-0.3-2.1-1.6-3.8-3.5-4.8c-0.2-0.1-0.5,0-0.7,0.2C9.7,2.2,9.8,2.5,10,2.6"/>
			<path id="Fill-5" class="st0" d="M1.5,7.3C1.5,7.3,1.5,7.3,1.5,7.3C1.8,7.3,2,7.1,2,6.9C2.2,5,3.4,3.3,5.2,2.5
				c0.2-0.1,0.4-0.4,0.2-0.7C5.3,1.6,5,1.5,4.7,1.6c-2,1-3.4,2.9-3.7,5.1C1,7,1.2,7.3,1.5,7.3"/>
			<g id="Group-9" transform="translate(6.000000, 0.000200)">
				<g id="Clip-8">
				</g>
				<defs>
					<filter id="Adobe_OpacityMaskFilter" filterUnits="userSpaceOnUse" x="0" y="0" width="3" height="3">
						<feColorMatrix  type="matrix" values="1 0 0 0 0  0 1 0 0 0  0 0 1 0 0  0 0 0 1 0"/>
					</filter>
				</defs>
				<mask maskUnits="userSpaceOnUse" x="0" y="0" width="3" height="3" id="mask-2">
					<g class="st1">
						<polygon id="path-1" class="st2" points="0,0 3,0 3,3 0,3 						"/>
					</g>
				</mask>
				<path id="Fill-7" class="st3" d="M1.5,3C2.3,3,3,2.3,3,1.5C3,0.7,2.3,0,1.5,0S0,0.7,0,1.5C0,2.3,0.7,3,1.5,3"/>
			</g>
			<path id="Fill-10" class="st0" d="M1.5,8C0.7,8,0,8.6,0,9.5C0,10.3,0.7,11,1.5,11S3,10.3,3,9.5C3,8.6,2.3,8,1.5,8"/>
			<path id="Fill-12" class="st0" d="M13.5,7.7c-0.8,0-1.5,0.7-1.5,1.5c0,0.8,0.7,1.5,1.5,1.5S15,10.1,15,9.2
				C15,8.4,14.3,7.7,13.5,7.7"/>
		</g>
	</g>
</g>
</svg>
