<svg height="52" viewBox="0 0 250 52" width="250" xmlns="http://www.w3.org/2000/svg"><g fill="none" fill-rule="evenodd"><path d="m0 37.0157428v-22.8646616c0-.9661654.51343537-1.8571429 1.35178123-2.3402256l19.82894737-11.44924811c.8364662-.48120301 1.8665414-.48308271 2.7011278 0l10.6015038 6.12030075c1.2913534.7462406 1.7349624 2.39849624.9887218 3.69172936-.7462406 1.2913533-2.3984963 1.7349624-3.6917293.9887218l-9.25-5.3402256-17.12593989 9.8890977v19.7781955l17.12593989 9.8872181 17.1296992-9.8872181v-21.3383458h5.4041353v22.8984962c0 .9642857-.5169172 1.8571429-1.3515037 2.3402256l-19.8308271 11.4492481c-.4172932.2368421-.8834586.3609023-1.3515037.3609023-.4661655 0-.9323309-.1240602-1.3496241-.3609023l-19.80075188-11.4342105c-.25-.1390978-.48120301-.3214286-.68609023-.5488722-.47368421-.5244361-.70300751-1.1823308-.69388649-1.8402256" fill="#fff"/><path d="m2.70234514 39.7507052c-.45676692 0-.91353383-.1165413-1.32142857-.3458646-.2518797-.1390978-.48308271-.3214286-.68609023-.5488722-.47368421-.5244361-.70300751-1.1823308-.69388649-1.8402256.00591657-.7274436.30854815-1.4511278.89125492-1.9736842l15.48308273-13.9586466c.8703007-.7838346 2.1484962-.9191729 3.1616541-.3327068l6.9906015 4.0357143 14.0263158-12.6428571c1.1071429-1 2.8157895-.9097745 3.8139098.1992481.4661654.5150376.6954887 1.1635338.6954887 1.8082707 0 .7368421-.3007519 1.4736842-.8909774 2.0056391l-15.4868422 13.9586466c-.868421.7857143-2.1428571.9154135-3.1578947.3345865l-6.9924812-4.0394737-14.02443608 12.6447368c-.5169173.4661654-1.16353384.6954887-1.80827068.6954887" fill="#e50000"/><g fill="#fff"><path d="m129.763811 25.0326601v7.0093985c0 .3646617.293233.6560151.656015.6560151h9.009399c.360902 0 .654135-.2913534.654135-.6560151v-7.0093985c0-.3627819-.293233-.656015-.654135-.656015h-9.009399c-.362782 0-.656015.2932331-.656015.656015m-2.721804 9.3327068v-11.6541354c0-.5864661.473684-1.0601503 1.05827-1.0601503h13.648497c.584586 0 1.05827.4736842 1.05827 1.0601503v11.6541354c0 .5808271-.473684 1.0582707-1.05827 1.0582707l-13.648497-.0037594c-.584586 0-1.05827-.4736842-1.05827-1.0545113"/><path d="m82.5510294 9.00935185h-12.5902256c-.5902256 0-1.0676692.47744361-1.0676692 1.06578945v.5921053c0 .5845865.4793233 1.0657895 1.0676692 1.0657895h4.5338346.0075188c.1353383 0 .2481203.1109022.2481203.2481203 0 .0131579-.0037594.0319548-.0037594.0319548l-.3928572 2.9830828c-.0451128.3233082-.3214285.5676691-.6522556.5676691h-3.2462406c-.5808271 0-1.0582707.4774436-1.0582707 1.0601504v15.4830827c0 .5827068.4718045 1.0545113 1.0545113 1.0545113h.6165413c.5808271 0 1.0526316-.4718045 1.0526316-1.0545113v-13.1672932c0-.3590226.2913534-.650376.6522557-.650376h6.9642857c.3609022 0 .656015.2932331.656015.6541354v13.156015c0 .5864662.4736842 1.0620301 1.0582707 1.0620301h.6033834c.5864662 0 1.0601504-.4755639 1.0601504-1.0620301v-15.4699248c0-.5883459-.4755639-1.0657895-1.0639097-1.0657895l-4.7462407-.0018797c-.1353383 0-.2443609-.1165413-.2443609-.2443609v-.0319549l.3947369-2.9868421c.0432331-.3233082.3195489-.5657894.6466165-.5657894h4.4492482c.5864661 0 1.0676691-.481203 1.0676691-1.0657895v-.5921053c0-.58458645-.481203-1.06578945-1.0676691-1.06578945"/><path d="m54.8696384 42.1792767c-.2443609 0-.4887218-.093985-.6541354-.2744361-.1654135-.1766918-.2406015-.4285715-.2199248-.6710527l.7932331-10.1109022c.1052632-1.3120301.1597744-2.6390978.1597744-3.9454887v-17.1109023c0-.58458646.4736843-1.05639097 1.056391-1.05639097h.6071429c.5845864 0 1.0582707.47180451 1.0582707 1.05639097v17.1109023c0 1.3928571-.056391 2.793233-.1672933 4.1597744l-.7725564 9.8308271c-.0432331.5676691-.5244361 1.0112782-1.0921052 1.0112782z"/><path d="m81.2698263 42.1792767c-.4210526 0-.8026315-.2330827-.9849624-.612782-.6917293-1.424812-2.7161654-5.9793233-3.443609-7.6221804-.0939849-.2086467-.3947368-.1917294-.4661654.024436l-2.4078947 7.4736843c-.1409775.4398496-.5488722.7368421-1.0093985.7368421h-.8834587c-.2838346 0-.5526316-.1203008-.7180451-.3515038-.1672932-.2293233-.2048872-.5244361-.1165413-.7951128l2.7406015-8.5056391c.6052631-1.8815789.9135338-3.8477443.9135338-5.8214286v-5.2819548c0-.5845865.4774436-1.0582707 1.0601504-1.0582707h.6033834c.5864662 0 1.0601504.4718045 1.0601504 1.056391v5.3139097c0 1.6372181-.0056391 2.1184211-.137218 2.862782l-.3947369 1.8458647c-.0319549.156015.0883459.3007518.2462406.2988721l.7706767-.0150376c.4492481-.0037594.8571429.2631579 1.0319549.6766918 1.5582707 3.6973684 2.9586466 6.6691729 3.8665414 8.518797.1315789.2725564.1240601.5939849-.0357143.8515037-.1616542.2593985-.4511279.4041354-.7575188.4041354z"/><path d="m60.6224579 40.1123594c-.5921052 0-1.0733082-.4793233-1.0733082-1.0733083v-27.8646617c0-.5789473.4755639-1.0526315 1.0526315-1.0526315h.6090226c.5864662 0 1.0620301.4736842 1.0620301 1.0601503v27.8571429c0 .593985-.481203 1.0733083-1.0733083 1.0733083z"/><path d="m65.1933226 42.1792767c-.5864662 0-1.0601504-.475564-1.0601504-1.0620301v-31.0507519c0-.58270676.4736842-1.05639097 1.056391-1.05639097h.6052631c.5864662 0 1.0601504.47180451 1.0601504 1.05827067v31.0488722c0 .5864661-.4755639 1.0620301-1.0620301 1.0620301z"/><path d="m177.756856 15.4377353c.131579.8007519.496241 3.0112782.50376 3.0545113.180451 1.0939849.445489 2.5357143.796992 4.4736842.048872.2631579.419173.2781955.490602.0225564.146616-.5413534.422932-1.5620301.612782-2.2781955.127819-.4680451.550752-.7951128 1.037594-.7951128l.892857.0018797c.556391 0 .958647.5281955.81391 1.0657895-.50188 1.8552631-1.569549 5.7105263-2.3797 8.1522556-.118421.3552632-.142857.7368421-.067669 1.1033835.819549 4.1296992 1.642857 7.7838346 2.443609 10.8571428.067669.2669173.013158.5394737-.152255.7537594-.167294.2161655-.419173.3364662-.695489.3364662l-.853384.0018874c-.5.001872-.93421-.342113-1.043233-.8289551-.364661-1.6109022-1.148496-5.0939849-1.394736-6.2537594-.048873-.2368421-.372181-.2725564-.469925-.0488721-.539474 1.2330827-2.347745 5.0150376-3.06391 6.5112782-.180451.3815789-.56391.6203084-.981203.6203084l-.996241-.0018874c-.317669 0-.637218-.1597744-.781955-.424812-.18609-.3458647-.133458-.6240602.033835-.9060151 1.663534-2.8026315 3.293233-6.4642857 4.843985-10.887218.105263-.2988722.129699-.6240602.067669-.9360902-.840225-4.3590226-1.656015-8.9548872-2.428571-13.6616542-.018797-.1240601-.12594-.212406-.25-.212406h-7.983083c-.364662 0-.657895.2932331-.657895.6560151v3.293233c0 .3327068.268797.6015038.603384.6015038h5.223684c.586466 0 1.06015.4755639 1.06015 1.0620301v7.9943609c0 2.4548872-.225564 4.9116541-.676691 7.3289473l-.319549 1.7274437c-.093985.5-.530075.8627819-1.037594.8627819h-.87782c-.528195 0-.928571-.4849624-.830827-1.0037594l.387218-2.0770677c.421053-2.2537594.633459-4.5413533.633459-6.830827v-5.6804512c0-.3627819-.296993-.6578947-.659775-.6578947h-2.849624c-.362782 0-.656015.2932331-.656015.6522556v8.8101504c0 1.5018797-.107143 3.0018797-.317669 4.4887218l-.697368 4.8703008c-.077068.5319549-.520677.924812-1.067669.924812h-.802632c-.253759 0-.49812-.0789474-.671053-.2913534-.172932-.1823308-.233082-.4605263-.197368-.7142857l.736842-5.1729323c.195489-1.3571429.293233-2.731203.293233-4.1052632v-18.3928571c0-.5902256.481203-1.0714286 1.069549-1.0714286h8.270677l1.505639-.0037594c.154135 0 .272556-.137218.24812-.2894737-.077068-.5075188-.238722-1.56203-.330827-2.14849622-.077068-.51315789.317669-.97180451.836466-.97180451h.857143c.524436 0 .969925.38157895 1.050752.89849624l.304511 1.96240599c.050752.3176692.325188.5526316.646617.5526316h4.244361c.590225 0 1.067669.4793233 1.067669 1.0695489v.5864661c0 .5902256-.483083 1.0714286-1.071429 1.0695489l-4.065789-.0093985c-.152256 0-.272557.1390978-.248121.2894737"/><path d="m179.78336 11.7443143c-.362782 0-.693609-.2312031-.821428-.5714286l-.31391-.9718045c-.099624-.27067672-.06203-.5676692.101504-.80451131.163533-.2368421.43421-.37781955.721804-.37781955h1.033835c.362782 0 .693609.22932331.821428.57142857l.31203.96992479c.101504.2706767.06391.5695489-.099624.8045113-.163534.2387218-.43609.3796993-.721804.3796993z"/><path d="m115.27321 31.4572842h-11.046993c-.362782 0-.657894-.2932331-.657894-.6578948v-5.1109022c0-.3646617.295112-.6560151.657894-.6560151h9.686091c.586466 0 1.06203-.4755639 1.06203-1.06203v-.6015038c0-.5845865-.475564-1.0601504-1.06203-1.0601504h-9.686091c-.362782 0-.657894-.293233-.657894-.656015v-5.1052632c0-.3609022.295112-.6541353.657894-.6541353h10.345865c.584586 0 1.06015-.4755639 1.06015-1.0620301v-.599624c0-.5883459-.475564-1.0620301-1.06015-1.0620301h-10.345865c-.362782 0-.657894-.2951128-.657894-.656015v-2.4454888c0-.58458643-.473685-1.05827064-1.056391-1.05827064h-.607143c-.582707 0-1.058271.47556391-1.058271 1.05639094v2.4473685c0 .3609022-.293233.656015-.656015.656015h-10.3477443c-.5864662 0-1.0601504.4736842-1.0601504 1.0582707v.6071428c0 .5827068.4755639 1.0582707 1.0582707 1.0582707h10.349624c.362782 0 .656015.2932331.656015.6541353v5.1052632c0 .362782-.293233.656015-.656015.656015h-9.6898496c-.5827068 0-1.0582707.4736842-1.0582707 1.0582707v.6071429c0 .580827.4774436 1.0582706 1.056391 1.0582706h9.6917293c.362782 0 .656015.2913534.656015.6560151v5.1109022c0 .3646617-.293233.6578948-.656015.6578948h-11.0469924c-.5864662 0-1.0601504.4755639-1.0601504 1.056391v.6109022c0 .5789474.4755639 1.056391 1.0582707 1.056391h11.0488721c.362782 0 .656015.2913534.656015.656015v6.2800752c0 .5864662.475564 1.0620301 1.06203 1.0620301h.599624c.586466 0 1.060151-.4755639 1.060151-1.0620301v-6.2800752c0-.3646616.295112-.656015.657894-.656015h11.046993c.586466 0 1.06015-.4774436 1.06015-1.0601504v-.6033834c0-.5845865-.473684-1.0601504-1.06015-1.0601504"/><path d="m159.216819 19.902021c.037594-.3270676.31391-.5827067.652255-.5827067h1.266918c.586466 0 1.06203-.4736843 1.06203-1.0601504v-.5996241c0-.5864661-.475564-1.0620301-1.06203-1.0620301h-1.266918c-.362781 0-.656015-.293233-.656015-.656015v-5.8646616c0-.58458652-.475563-1.05827073-1.05827-1.05827073h-.609023c-.580827 0-1.056391.47556391-1.056391 1.05639103v5.8665413c0 .362782-.293233.656015-.656015.656015h-1.259398c-.584587 0-1.058271.4736843-1.058271 1.0601504v.6052632c0 .5827067.475564 1.056391 1.056391 1.056391h1.261278c.362782 0 .656015.2951127.656015.6578947l.00376 16.7744361c0 .1203007-.086467.2255639-.204888.2481203l-1.879699.3477443c-.516917.0977444-.892857.5507519-.892857 1.0770677v.8026316c-.016917.5131579.392857.8928571.87594.8778195.052631-.0018797.105263-.0056391.161654-.0150376l6.74812-1.2575188c.520677-.0958646.896617-.5507518.896617-1.0770676v-.8026316c0-.5075188-.357143-.8778195-.87782-.8778195-.052631 0-.107143.0037593-.161654.0150375l-1.646616.3007519c-.154136.0300752-.295113-.0864661-.295113-.2424812z"/><path d="m147.989939 9.00935185c.586466 0 1.058271.47368421 1.058271 1.05827065v21.4154136c0 1.4323308-.157895 2.8590225-.475564 4.2518797l-1.280075 5.6259398c-.109023.4793233-.533835.8176692-1.026316.8176692h-.894737c-.541353 0-.941729-.5-.821428-1.0263158l1.364661-6.0112782c.274436-1.2030075.411654-2.4379699.411654-3.6710526v-19.0808271c0-.362782-.291353-.6541353-.652255-.6541353h-21.496241c-.360902 0-.656015.293233-.656015.656015l.00188 23.1672932.001879 5.5582707c0 .5883459-.475563 1.0620301-1.06203 1.0620301h-.599624c-.586466 0-1.06203-.4736842-1.06203-1.0620301l-.003759-31.0488722c0-.58458644.475564-1.05827065 1.06203-1.05827065z"/><path d="m127.041631 16.7997654c0-.5921053.481203-1.0733083 1.073308-1.0733083h13.639098c.578947 0 1.054511.4736842 1.054511 1.0526316v.6090225c0 .5864662-.475564 1.0620301-1.06203 1.0620301h-13.631579c-.592105 0-1.073308-.481203-1.073308-1.0733082z"/><path d="m214.834864 20.9867955h-26.161654c-.584587 0-1.060151.4755639-1.060151 1.06203v.6015038c0 .5845865.475564 1.0601504 1.060151 1.0601504h26.161654c.586466 0 1.06015-.4755639 1.06015-1.0601504v-.6015038c0-.5864661-.473684-1.06203-1.06015-1.06203"/><path d="m224.281105 36.2465699h-1.056391c-.56579 0-1.030076-.4417293-1.060151-1.0075188l-.772556-15.3721805c-.018797-.3740601.280075-.6879699.656015-.6879699h1.056391c.567669 0 1.033834.443609 1.06203 1.0093985l.770677 15.3703008c.016917.3740601-.280076.6879699-.656015.6879699"/><path d="m221.423022 17.2550285h9.528195c.588346 0 1.06579-.4755639 1.06579-1.06203v-.631579c0-.5864661-.475564-1.0620301-1.06203-1.0620301h-9.531955c-.586466 0-1.060151.475564-1.060151 1.0620301v.6334587c0 .5845864.473685 1.0601503 1.060151 1.0601503"/><path d="m232.018323 38.5300285v1.1109023c0 .5281955-.390978.9755639-.915414 1.0469925l-9.992481 1.3703007c-.394737.0526316-.744361-.2537594-.744361-.6522556v-1.1033835c0-.5263158.390977-.9755639.915413-1.0469925l5.050752-.693609c.306391-.0432331.541354-.2951128.56391-.6015037l1.402256-17.8007519c.043233-.5545113.503759-.981203 1.06015-.981203h1.06579c.381579 0 .68609.3270676.654135.7086466l-1.368421 17.4003759c-.030075.419173.330827.7612782.74812.7048873l.81579-.1146617c.392857-.0526316.744361.2537594.744361.6522556"/><path d="m236.906668 27.1877353h9.00376c.362782 0 .657895.2932331.657895.656015v10.9248121c0 .3627819-.295113.656015-.657895.656015h-9.00376c-.360902 0-.656015-.2932331-.656015-.656015v-10.9248121c0-.3627819.295113-.656015.656015-.656015m12.413534-10.9868421v-.6428571c0-.5827068-.469925-1.056391-1.054511-1.056391h-5.68985c-.362782 0-.656015-.2932331-.656015-.6560151v-3.7725563c0-.58646621-.475564-1.06203012-1.06015-1.06203012h-.635338c-.586467 0-1.060151.47556391-1.060151 1.06203012v13.7030075c0 .3627819-.293233.656015-.656015.656015h-3.949248c-.588346 0-1.06203.4755639-1.06203 1.0620301v15.6221804c0 .5883459.473684 1.0639098 1.06203 1.0639098h13.701128c.586466 0 1.06015-.4755639 1.06015-1.0639098v-15.6221804c0-.5864662-.473684-1.0620301-1.06015-1.0620301h-5.684211c-.362782 0-.656015-.2932331-.656015-.656015v-5.8646617c0-.3609022.293233-.6541353.656015-.6541353h5.68985c.584586 0 1.054511-.4718045 1.054511-1.056391"/><path d="m226.256293 13.6570962h1.116541c.404135 0 .712406-.3609022.644737-.7593985l-.483083-2.99624059c-.082707-.51315789-.526316-.89097744-1.045113-.89097744h-1.12218c-.402256 0-.712406.36466165-.644737.76315789l.486842 2.99436094c.084586.5131579.528196.8890977 1.046993.8890977"/></g></g></svg>