<svg id="图层_1" data-name="图层 1" xmlns="http://www.w3.org/2000/svg" viewBox="0 0 15 16.09"><defs><style>.cls-1{fill:#FFFFFF;}</style></defs><title>用户协议</title><path class="cls-1" d="M10.83,12H4.17a.5.5,0,0,0,0,1h6.67a.5.5,0,0,0,0-1Z"/><path class="cls-1" d="M4.17,10.17h4.6a.5.5,0,1,0,0-1H4.17a.5.5,0,1,0,0,1Z"/><path class="cls-1" d="M4.17,7.31H6.78a.5.5,0,0,0,0-1H4.17a.5.5,0,0,0,0,1Z"/><path class="cls-1" d="M14.37,4.62,10.44.39h0a.5.5,0,0,0-.11-.08l-.05,0a.5.5,0,0,0-.17,0H3.36A2.6,2.6,0,0,0,.5,3V13.3a2.6,2.6,0,0,0,2.86,2.79h8.27A2.6,2.6,0,0,0,14.5,13.3V5A.5.5,0,0,0,14.37,4.62ZM10.58,2l2.66,2.87H10.58Zm1.06,13.08H3.36c-1.24,0-1.86-.6-1.86-1.79V3c0-1.19.63-1.79,1.86-1.79H9.58V5.38a.5.5,0,0,0,.5.5H13.5V13.3C13.5,14.49,12.87,15.09,11.64,15.09Z"/></svg>