<?xml version="1.0" encoding="UTF-8"?>
<svg width="26px" height="26px" viewBox="0 0 26 26" version="1.1" xmlns="http://www.w3.org/2000/svg" xmlns:xlink="http://www.w3.org/1999/xlink">
    <!-- Generator: Sketch 47.1 (45422) - http://www.bohemiancoding.com/sketch -->
    <title>ic_keyboardic_expression</title>
    <desc>Created with Sketch.</desc>
    <defs></defs>
    <g id="对话" stroke="none" stroke-width="1" fill="none" fill-rule="evenodd">
        <g id="会话窗口-pc2" transform="translate(-207.000000, -495.000000)">
            <g id="表情" transform="translate(207.000000, 495.000000)">
                <circle id="Oval-10" stroke="#4D4D4D" stroke-width="2" cx="13" cy="13" r="12"></circle>
                <g id="Group-4" transform="translate(5.724138, 6.620690)" fill="#4D4D4D">
                    <path d="M0.275862069,7.37931034 C0.275862069,10.7068421 3.40986882,13.8408488 7.81432361,13.8408488 C11.1418553,13.8408488 14.2758621,10.7068421 14.2758621,7.37931034 L0.275862069,7.37931034 Z M3.77586207,4.37931034 C2.94743494,4.37931034 2.27586207,3.48387984 2.27586207,2.37931034 C2.27586207,1.27474085 2.94743494,0.379310345 3.77586207,0.379310345 C4.60428919,0.379310345 5.27586207,1.27474085 5.27586207,2.37931034 C5.27586207,3.48387984 4.60428919,4.37931034 3.77586207,4.37931034 Z M10.7758621,4.37931034 C9.94743494,4.37931034 9.27586207,3.48387984 9.27586207,2.37931034 C9.27586207,1.27474085 9.94743494,0.379310345 10.7758621,0.379310345 C11.6042892,0.379310345 12.2758621,1.27474085 12.2758621,2.37931034 C12.2758621,3.48387984 11.6042892,4.37931034 10.7758621,4.37931034 Z" id="Combined-Shape"></path>
                </g>
            </g>
        </g>
    </g>
</svg>