<?xml version="1.0" encoding="UTF-8"?>
<svg width="26px" height="26px" viewBox="0 0 26 26" version="1.1" xmlns="http://www.w3.org/2000/svg" xmlns:xlink="http://www.w3.org/1999/xlink">
    <!-- Generator: Sketch 51.1 (57501) - http://www.bohemiancoding.com/sketch -->
    <title>ic_keyboardic_judge</title>
    <desc>Created with Sketch.</desc>
    <defs></defs>
    <g id="对话" stroke="none" stroke-width="1" fill="none" fill-rule="evenodd">
        <g id="会话窗口-pc1" transform="translate(-357.000000, -495.000000)" fill="#4D4D4D" fill-rule="nonzero">
            <g id="文件夹-copy" transform="translate(357.000000, 495.000000)">
                <g id="评价-(1)" transform="translate(1.000000, 1.000000)">
                    <path d="M5.82957589,24.9789792 C5.72314138,24.9789792 5.61582747,24.9584065 5.5136301,24.9160619 C5.20493273,24.7882019 5.00365586,24.4869662 5.00365586,24.152846 L5.00365586,20.98566 C3.55120063,19.9673638 2.33943555,18.6527617 1.48231,17.1610265 C0.516964505,15.4809922 0.00672377604,13.5789485 0.00672377604,11.6605425 C0.00672377604,10.0799874 0.339991146,8.54689352 0.997305495,7.1038719 C1.63002318,5.71481367 2.53452992,4.46848536 3.68569609,3.39955677 C4.83251854,2.33465211 6.16694714,1.4989787 7.65191367,0.915747448 C9.18596693,0.313275937 10.8145161,0.00777640625 12.4923385,0.00777640625 C14.170161,0.00777640625 15.7986835,0.313275937 17.3327367,0.915774115 C18.8177299,1.49900534 20.1521585,2.33467878 21.2989809,3.39958344 C22.4501471,4.46851203 23.3546539,5.71484036 23.9873715,7.10389857 C24.6446592,8.54692021 24.9779533,10.0800141 24.9779533,11.6605691 C24.9779533,13.2411508 24.6446592,14.7742181 23.9873715,16.2172397 C23.3546539,17.6062979 22.4501471,18.8526262 21.2989809,19.9215548 C20.1521585,20.9864595 18.8177299,21.8221063 17.3327367,22.4053642 C15.7987101,23.0078357 14.1701609,23.3133352 12.4923385,23.3133352 C11.1081836,23.3133352 9.75403508,23.1044902 8.45904643,22.6918899 L6.41389971,24.73701 C6.25587352,24.8950362 6.04457677,24.9789792 5.82957589,24.9789792 Z M12.4923385,1.65998953 C11.0221087,1.65998953 9.59678169,1.92700849 8.25593081,2.4536381 C6.96408667,2.96100078 5.80471273,3.68661547 4.80994719,4.61030922 C2.77799151,6.49710997 1.6589369,9.00095904 1.6589369,11.6605425 C1.6589369,13.2905307 2.09322911,14.9079408 2.91485872,16.3379312 C3.71490297,17.7303205 4.87814096,18.9458164 6.27884461,19.8530946 C6.51393854,20.0053647 6.65584234,20.2663611 6.65584234,20.5464645 L6.65584234,22.1584649 L7.65444529,21.159862 C7.88149135,20.9327892 8.21944888,20.8579067 8.52116432,20.9677255 C9.78510737,21.4278403 11.1211882,21.6611221 12.4922852,21.6611221 C13.9625151,21.6611221 15.3878421,21.3941031 16.7286929,20.8675002 C18.0205371,20.3601375 19.179911,19.6344961 20.1746766,18.7108024 C22.2066322,16.823975 23.3256868,14.3201526 23.3256868,11.6605691 C23.3256868,9.00098565 22.2066322,6.49713659 20.1746766,4.61033583 C19.1799377,3.68664211 18.0205371,2.9610274 16.7286929,2.45366471 C15.3878953,1.92700849 13.9625684,1.65998953 12.4923385,1.65998953 Z" id="Shape"></path>
                    <path d="M10.8266945,17.1570825 C10.485699,17.1570825 10.1447036,17.026984 9.88453328,16.7668138 L6.55324523,13.4355524 C6.03290469,12.9152118 6.03290469,12.0715438 6.55324523,11.5512033 C7.07358578,11.0308627 7.91725378,11.0308627 8.43759432,11.5512033 L10.8266945,13.9403035 L16.5470828,8.21991521 C17.0674499,7.69957466 17.9110646,7.69957466 18.4314318,8.21991521 C18.9517724,8.74025576 18.9517724,9.58392375 18.4314318,10.1042643 L11.7688557,16.7668138 C11.5086854,17.026984 11.16769,17.1570825 10.8266945,17.1570825 Z" id="Shape"></path>
                </g>
            </g>
        </g>
    </g>
</svg>